<?xml version="1.0" encoding="UTF-8" standalone="no"?>
<!-- Created with Inkscape (http://www.inkscape.org/) -->

<svg
   width="100"
   height="100"
   viewBox="0 0 26.458335 26.458332"
   version="1.1"
   id="svg1"
   inkscape:version="1.4.3 (0d15f75, 2025-12-25)"
   sodipodi:docname="fire extinguisher.svg"
   xmlns:inkscape="http://www.inkscape.org/namespaces/inkscape"
   xmlns:sodipodi="http://sodipodi.sourceforge.net/DTD/sodipodi-0.dtd"
   xmlns="http://www.w3.org/2000/svg"
   xmlns:svg="http://www.w3.org/2000/svg">
  <sodipodi:namedview
     id="namedview1"
     pagecolor="#ffffff"
     bordercolor="#000000"
     borderopacity="0.25"
     inkscape:showpageshadow="2"
     inkscape:pageopacity="0.0"
     inkscape:pagecheckerboard="0"
     inkscape:deskcolor="#d1d1d1"
     inkscape:document-units="mm"
     inkscape:zoom="3.3888047"
     inkscape:cx="160.82367"
     inkscape:cy="91.625227"
     inkscape:window-width="2304"
     inkscape:window-height="1190"
     inkscape:window-x="-11"
     inkscape:window-y="-11"
     inkscape:window-maximized="1"
     inkscape:current-layer="layer1" />
  <defs
     id="defs1" />
  <g
     inkscape:label="Slānis 1"
     inkscape:groupmode="layer"
     id="layer1">
    <path
       id="path87"
       style="fill:#c8102e;stroke-width:2.28028;fill-opacity:1"
       d="M 18.223691,0.19646102 C 16.094867,0.39468923 14.520115,1.756656 12.745099,2.6980328 L 8.1225048,2.6651364 C 7.0991344,2.6578359 6.2654249,3.4850178 6.264678,4.5084158 L 6.2520064,20.519357 c -8.57e-5,0.164502 0.1341208,0.297435 0.2986161,0.295773 l 0.7152353,-0.0079 c 0.159635,-0.0018 0.2881117,-0.131697 0.2881791,-0.291342 L 7.5497506,4.5466913 c -9.63e-5,-0.4590517 0.3735502,-0.8304242 0.8325911,-0.82753 l 4.0206113,0.024675 C 12.351473,3.8831821 12.302431,4.0649588 12.235611,4.3372789 11.059585,4.4691923 10.021706,4.6194425 8.8900601,5.0534607 8.4427113,5.2250319 8.0896204,5.7882353 8.0840438,6.2675514 7.9960595,13.826963 8.0375202,21.738073 8.0607825,25.22831 c 0.00429,0.635633 0.5286171,1.148225 1.1644268,1.144814 l 2.8656667,-0.0155 c 0.767524,-0.0041 1.535067,-0.0041 2.302598,0 l 3.077934,0.01614 c 0.65707,0.0034 1.191577,-0.528225 1.191631,-1.185304 L 18.634453,6.2615427 C 18.633884,5.8861607 18.389878,5.3980398 18.060622,5.2182714 17.289351,4.7971674 16.297415,4.5171526 14.582842,4.3410775 14.396806,3.9249262 14.445251,3.6460144 14.246579,3.4031456 c -0.01055,-0.00141 -0.02332,-0.00263 -0.03826,-0.0041 l 0.0024,-0.020563 c 2.760078,-0.1867098 4.845678,0.1357151 5.3258,1.1916307 L 19.765566,3.6682396 C 18.730564,2.4430391 16.543123,2.6427011 14.490089,2.6939308 15.918852,1.8124132 17.31844,0.79967635 18.987095,0.9999608 Z M 13.339809,6.0647781 c 1.683158,1.9328024 -1.0755,4.1182559 2.086224,7.0042739 0.507798,-0.784296 0.104026,-1.371072 0.04273,-1.985315 4.684322,4.101127 1.020541,7.70899 -0.40712,8.699826 1.246675,-4.048307 -1.655807,-4.338614 -1.956211,-6.246337 -0.262328,0.974259 -0.207338,4.977991 -1.367199,1.652846 -1.721942,1.420063 0.129126,4.386316 0.05693,4.608673 -4.040218,-2.509866 -2.9712123,-6.286566 -1.627538,-7.687871 -0.01144,0.892674 -0.122753,1.773988 1.084389,2.353527 -1.283508,-4.6072468 2.396635,-6.0230188 2.087808,-8.3996229 z"
       sodipodi:nodetypes="ccscccccccccssscccscsscccccccccsccccccccss" />
  </g>
</svg>
