<?xml version="1.0" encoding="UTF-8" standalone="no"?>
<!-- Created with Inkscape (http://www.inkscape.org/) -->

<svg
   width="100"
   height="100"
   viewBox="0 0 26.458335 26.458332"
   version="1.1"
   id="svg1"
   inkscape:version="1.4.3 (0d15f75, 2025-12-25)"
   sodipodi:docname="fire shield.svg"
   xmlns:inkscape="http://www.inkscape.org/namespaces/inkscape"
   xmlns:sodipodi="http://sodipodi.sourceforge.net/DTD/sodipodi-0.dtd"
   xmlns="http://www.w3.org/2000/svg"
   xmlns:svg="http://www.w3.org/2000/svg">
  <sodipodi:namedview
     id="namedview1"
     pagecolor="#ffffff"
     bordercolor="#000000"
     borderopacity="0.25"
     inkscape:showpageshadow="2"
     inkscape:pageopacity="0.0"
     inkscape:pagecheckerboard="0"
     inkscape:deskcolor="#d1d1d1"
     inkscape:document-units="mm"
     inkscape:zoom="3.3888047"
     inkscape:cx="138.98706"
     inkscape:cy="77.165851"
     inkscape:window-width="2304"
     inkscape:window-height="1190"
     inkscape:window-x="-11"
     inkscape:window-y="-11"
     inkscape:window-maximized="1"
     inkscape:current-layer="layer1" />
  <defs
     id="defs1">
    <rect
       x="2462.1458"
       y="171.11984"
       width="207.88939"
       height="63.63961"
       id="rect20" />
  </defs>
  <g
     inkscape:label="Slānis 1"
     inkscape:groupmode="layer"
     id="layer1">
    <path
       id="path87"
       style="fill:#c8102e;fill-opacity:1;stroke-width:2.28028"
       d="m 56.402713,2.7729594 c -2.128824,0.1982283 -3.703576,1.560195 -5.478592,2.5015718 l -4.622594,-0.032896 c -1.02337,-0.0073 -1.85708,0.8198814 -1.857827,1.8432794 l -0.01267,16.0109408 c -8.6e-5,0.164502 0.13412,0.297435 0.298616,0.295773 l 0.715235,-0.0079 c 0.159635,-0.0018 0.288112,-0.131697 0.288179,-0.291342 l -0.0043,-15.9691963 c -9.7e-5,-0.4590517 0.37355,-0.8304242 0.832591,-0.82753 l 4.020611,0.024675 c -0.05148,0.1393458 -0.100522,0.3211225 -0.167342,0.5934426 -1.176026,0.1319134 -2.213905,0.2821636 -3.345551,0.7161818 -0.447349,0.1715712 -0.800439,0.7347746 -0.806016,1.2140907 -0.08798,7.5594112 -0.04652,15.4705212 -0.02326,18.9607582 0.0043,0.635633 0.528617,1.148225 1.164426,1.144814 l 2.865667,-0.0155 c 0.767524,-0.0041 1.535067,-0.0041 2.302598,0 l 3.077934,0.01614 c 0.65707,0.0034 1.191577,-0.528225 1.191631,-1.185304 L 56.813475,8.8380411 C 56.812906,8.4626591 56.5689,7.9745382 56.239644,7.7947698 55.468373,7.3736658 54.476437,7.093651 52.761864,6.9175759 52.575828,6.5014246 52.624273,6.2225128 52.425601,5.979644 c -0.01055,-0.00141 -0.02332,-0.00263 -0.03826,-0.0041 l 0.0024,-0.020563 c 2.760078,-0.1867098 4.845678,0.1357151 5.3258,1.1916307 L 57.944588,6.244738 C 56.909586,5.0195375 54.722145,5.2191995 52.669111,5.2704292 c 1.428763,-0.8815176 2.828351,-1.8942544 4.497006,-1.69397 z m -4.883882,5.8683171 c 1.683158,1.9328025 -1.0755,4.1182555 2.086224,7.0042735 0.507798,-0.784296 0.104026,-1.371072 0.04273,-1.985315 4.684322,4.101127 1.020541,7.70899 -0.40712,8.699826 1.246675,-4.048307 -1.655807,-4.338614 -1.956211,-6.246337 -0.262328,0.974259 -0.207338,4.977991 -1.367199,1.652846 -1.721942,1.420063 0.129126,4.386316 0.05693,4.608673 -4.040218,-2.509866 -2.971212,-6.286566 -1.627538,-7.687871 -0.01144,0.892674 -0.122753,1.773988 1.084389,2.353527 -1.283508,-4.607246 2.396635,-6.023018 2.087808,-8.3996225 z"
       sodipodi:nodetypes="ccscccccccccssscccscsscccccccccsccccccccss" />
    <g
       id="g9"
       transform="matrix(1.062785,0,0,1.062785,-574.12917,-26.45066)"
       style="fill:#c8102e;fill-opacity:1">
      <rect
         style="fill:#c8102e;fill-opacity:1;stroke:none;stroke-width:2.265;stroke-dasharray:none"
         id="rect8"
         width="8.8635292"
         height="24.870834"
         x="613.30414"
         y="30.691666" />
      <rect
         style="fill:#c8102e;fill-opacity:1;stroke:none;stroke-width:2.265;stroke-dasharray:none"
         id="rect9"
         width="8.8635292"
         height="24.870834"
         x="38.695316"
         y="-630.17133"
         transform="rotate(90)" />
    </g>
    <path
       id="rect11"
       style="fill:#c8102e;fill-opacity:1;stroke:none;stroke-width:0.753305"
       d="m 39.912146,31.971146 v 8.718332 h 26.324492 v -8.718332 z m 21.443653,1.03508 3.901054,3.271635 -3.901054,3.272151 z m -20.410124,0.256832 h 4.689636 v 1.438672 h -2.812748 v 0.90382 h 2.273763 v 1.383895 h -2.273763 v 1.018026 h 2.812748 v 1.488798 h -4.689636 z m 4.863269,0 h 2.228288 l 0.967899,1.675866 1.00459,-1.675866 h 1.717208 l -1.808158,2.894913 2.095996,3.338298 h -2.224154 l -1.150834,-1.959054 -1.159619,1.959054 h -1.753381 l 2.009179,-3.228227 z m 6.621301,0 h 1.913062 v 6.233211 h -1.913062 z m 2.456698,0 h 4.397148 v 1.493449 H 57.99218 v 4.739762 h -1.813326 v -4.739762 h -1.291911 z" />
    <path
       id="path91"
       style="fill:#c8102e;fill-opacity:1;stroke:none;stroke-width:0.909279"
       inkscape:transform-center-x="0.41485903"
       inkscape:transform-center-y="-5.1395913"
       d="m 98.6656,23.839078 c -0.791373,-0.0045 -13.71189,22.082095 -13.320119,22.769701 0.391771,0.687617 25.979589,0.833789 26.379199,0.1507 0.3996,-0.683084 -12.267708,-22.915878 -13.05908,-22.920401 z m -0.06632,5.06147 c 1.001113,0.0064 2.00131,0.09202 2.09119,0.251451 0.17976,0.318858 -1.833501,10.798491 -2.038414,11.863908 -0.0038,0.01857 -0.05112,0.06518 -0.06491,-2.84e-4 -0.223585,-1.059497 -2.258376,-11.596229 -2.084133,-11.890999 0.09313,-0.157552 1.095159,-0.230443 2.096267,-0.224076 z m -0.0044,12.7492 A 1.392088,1.392088 0 0 1 99.987032,43.0419 1.392088,1.392088 0 0 1 98.59488,44.434052 1.392088,1.392088 0 0 1 97.203012,43.0419 1.392088,1.392088 0 0 1 98.59488,41.649748 Z" />
    <g
       id="g1"
       transform="translate(-41.614353,31.955329)"
       style="fill:#c8102e;fill-opacity:1">
      <path
         id="path9"
         style="fill:#c8102e;fill-opacity:1;stroke:none;stroke-width:2.05166;stroke-dasharray:none"
         d="M 10.964705,1.0583333 A 10.964562,10.964562 0 0 0 0,12.023039 10.964562,10.964562 0 0 0 10.964705,22.987227 10.964562,10.964562 0 0 0 21.928894,12.023039 10.964562,10.964562 0 0 0 10.964705,1.0583333 Z m 0.04186,8.6640707 a 2.3427746,2.3641109 0 0 1 2.34301,2.364197 2.3427746,2.3641109 0 0 1 -2.34301,2.364197 2.3427746,2.3641109 0 0 1 -2.3424924,-2.364197 2.3427746,2.3641109 0 0 1 2.3424924,-2.364197 z" />
      <path
         style="fill:none;fill-opacity:1;stroke:#c8102e;stroke-width:1.82405;stroke-dasharray:none;stroke-opacity:1"
         d="M 9.0937431,24.518897 C 17.683108,24.465653 25.790943,20.975838 25.053522,9.1931549"
         id="path10"
         sodipodi:nodetypes="cc" />
      <circle
         style="fill:#c8102e;fill-opacity:1;stroke:#c8102e;stroke-width:1.50818;stroke-dasharray:none;stroke-opacity:1"
         id="path11"
         cx="24.741976"
         cy="8.5521383"
         r="0.78378505" />
    </g>
    <g
       id="g91"
       transform="translate(-652.32666,-39.226243)">
      <rect
         style="fill:#c8102e;fill-opacity:1;stroke:none;stroke-width:1.50693;stroke-dasharray:none;stroke-opacity:1"
         id="rect53"
         width="26.028387"
         height="4.2333336"
         x="652.79321"
         y="101.07083"
         ry="1.4111111" />
      <path
         style="fill:none;fill-opacity:1;stroke:#c8102e;stroke-width:1.67678;stroke-dasharray:none;stroke-opacity:1"
         d="m 654.69459,101.51119 c -0.20314,-8.594799 1.13551,-16.241186 5.14053,-18.371674 2.74316,-1.459246 9.16572,-1.44701 11.87077,0.191265 3.73818,2.263896 5.2046,9.68923 5.14905,17.988229"
         id="path83"
         sodipodi:nodetypes="cccc" />
      <rect
         style="fill:#c8102e;fill-opacity:1;stroke:#c8102e;stroke-width:1.665;stroke-dasharray:none;stroke-opacity:1"
         id="rect83"
         width="5.8869548"
         height="11.31094"
         x="662.74817"
         y="91.182037"
         ry="1.8520833" />
      <rect
         style="fill:#c8102e;fill-opacity:1;stroke:#c8102e;stroke-width:1.665;stroke-dasharray:none;stroke-opacity:1"
         id="rect84"
         width="0.1984375"
         height="3.9026041"
         x="665.59247"
         y="85.096619"
         ry="0.099218749" />
      <rect
         style="fill:#c8102e;fill-opacity:1;stroke:#c8102e;stroke-width:1.665;stroke-dasharray:none;stroke-opacity:1"
         id="rect85"
         width="0.1984375"
         height="3.9026041"
         x="536.93878"
         y="-413.82703"
         ry="0.099218749"
         transform="rotate(45)" />
      <rect
         style="fill:#c8102e;fill-opacity:1;stroke:#c8102e;stroke-width:1.665;stroke-dasharray:none;stroke-opacity:1"
         id="rect86"
         width="0.1984375"
         height="3.9026041"
         x="-404.21075"
         y="527.69666"
         ry="0.099218749"
         transform="matrix(-0.70710678,0.70710678,0.70710678,0.70710678,0,0)" />
      <rect
         style="fill:#c8102e;fill-opacity:1;stroke:#c8102e;stroke-width:1.665;stroke-dasharray:none;stroke-opacity:1"
         id="rect87"
         width="0.1984375"
         height="3.9026041"
         x="-404.21075"
         y="527.69666"
         ry="0.099218749"
         transform="matrix(-0.70710678,0.70710678,0.70710678,0.70710678,0,0)" />
      <rect
         style="fill:#c8102e;fill-opacity:1;stroke:#c8102e;stroke-width:1.665;stroke-dasharray:none;stroke-opacity:1"
         id="rect88"
         width="0.1984375"
         height="3.9026041"
         x="-94.1586"
         y="656.86121"
         ry="0.099218749"
         transform="rotate(-90)" />
      <rect
         style="fill:#c8102e;fill-opacity:1;stroke:#c8102e;stroke-width:1.665;stroke-dasharray:none;stroke-opacity:1"
         id="rect89"
         width="0.1984375"
         height="3.9026041"
         x="-415.09659"
         y="519.33374"
         ry="0.099218749"
         transform="rotate(-120)" />
      <rect
         style="fill:#c8102e;fill-opacity:1;stroke:#c8102e;stroke-width:1.665;stroke-dasharray:none;stroke-opacity:1"
         id="rect90"
         width="0.1984375"
         height="3.9026041"
         x="250.39458"
         y="-633.79376"
         ry="0.099218749"
         transform="matrix(0.5,-0.8660254,-0.8660254,-0.5,0,0)" />
      <rect
         style="fill:#c8102e;fill-opacity:1;stroke:#c8102e;stroke-width:1.665;stroke-dasharray:none;stroke-opacity:1"
         id="rect91"
         width="0.1984375"
         height="3.9026041"
         x="-94.1586"
         y="670.58649"
         ry="0.099218749"
         transform="rotate(-90)" />
    </g>
    <path
       id="path104"
       style="fill:#c8102e;fill-opacity:1;stroke-width:0"
       d="m -47.787716,6.714511 c -7.403363,12.482269 -8.426795,13.036851 -8.426795,17.770596 0,4.733745 3.837178,8.570921 8.570923,8.570921 4.733744,0 8.571313,-3.837176 8.571313,-8.570921 0,-4.733745 -1.564608,-5.576928 -8.715441,-17.770596 z m -6.557955,14.186544 c -0.145178,3.005266 2.613081,10.515508 7.61749,11.297366 -7.194866,-0.282436 -9.203889,-6.987171 -7.61749,-11.297366 z" />
    <path
       style="fill:#c8102e;fill-opacity:1;stroke:none;stroke-width:1.14717;stroke-dasharray:none;stroke-opacity:1"
       d="m -22.604719,20.470049 c -7.721603,-4.796757 -5.678613,-12.0144849 -3.110618,-14.6926139 -0.02194,1.706046 -0.234468,3.390164 2.072551,4.4977539 -2.452986,-8.8051821 4.580011,-11.5107217 3.989776,-16.0527915 3.216798,3.6938954 -2.055281,7.870302 3.987296,13.3859466 0.970504,-1.498919 0.19861,-2.620126 0.08136,-3.7940369 8.9525026,7.8378948 1.95043,14.7328788 -0.778044,16.6265188 2.382561,-7.736956 -3.164051,-8.291427 -3.738186,-11.9373809 -0.501351,1.8619539 -0.396291,9.5134619 -2.612979,3.1585759 -3.291047,2.714067 0.247046,8.383442 0.108825,8.808028 z"
       id="path94"
       sodipodi:nodetypes="cccccccccc" />
    <path
       id="path95"
       style="fill:#c8102e;fill-opacity:1;stroke:none;stroke-width:2.35043;stroke-dasharray:none;stroke-opacity:1"
       d="M 13.281781,0 C 10.206108,1.7520135 7.0286659,3.3258159 3.2791798,3.8986381 4.2257024,11.446921 0.21940421,20.536476 13.249741,26.204693 25.949413,20.755884 22.6043,11.637081 23.380296,3.9625203 19.972521,3.3492301 16.60435,2.0618597 13.281781,0 Z m -0.09874,3.1667415 c 2.254614,2.5889966 -1.440583,5.5160431 2.794569,9.3818775 0.680216,-1.050572 0.139265,-1.836301 0.05708,-2.6590847 6.274678,5.4934777 1.367002,10.3261077 -0.545347,11.6533357 1.669906,-5.422723 -2.217673,-5.811346 -2.620075,-8.366747 -0.351388,1.30502 -0.2778,6.667844 -1.831449,2.213796 -2.3066462,1.902252 0.17319,5.875719 0.07632,6.1733 C 5.7021669,18.201248 7.134012,13.142583 8.9338775,11.265526 8.9185205,12.461267 8.769607,13.641461 10.386563,14.417752 8.6672972,8.246331 13.596697,6.3502074 13.183013,3.1667415 Z" />
  </g>
</svg>
