<?xml version="1.0" encoding="UTF-8" standalone="no"?>
<!-- Created with Inkscape (http://www.inkscape.org/) -->

<svg
   width="100"
   height="100"
   viewBox="0 0 26.458335 26.458332"
   version="1.1"
   id="svg1"
   inkscape:version="1.4.3 (0d15f75, 2025-12-25)"
   sodipodi:docname="sprinkler.svg"
   xmlns:inkscape="http://www.inkscape.org/namespaces/inkscape"
   xmlns:sodipodi="http://sodipodi.sourceforge.net/DTD/sodipodi-0.dtd"
   xmlns="http://www.w3.org/2000/svg"
   xmlns:svg="http://www.w3.org/2000/svg">
  <sodipodi:namedview
     id="namedview1"
     pagecolor="#ffffff"
     bordercolor="#000000"
     borderopacity="0.25"
     inkscape:showpageshadow="2"
     inkscape:pageopacity="0.0"
     inkscape:pagecheckerboard="0"
     inkscape:deskcolor="#d1d1d1"
     inkscape:document-units="mm"
     inkscape:zoom="1.1981234"
     inkscape:cx="28.377711"
     inkscape:cy="-47.991718"
     inkscape:window-width="2304"
     inkscape:window-height="1190"
     inkscape:window-x="-11"
     inkscape:window-y="-11"
     inkscape:window-maximized="1"
     inkscape:current-layer="layer1" />
  <defs
     id="defs1">
    <rect
       x="2462.1458"
       y="171.11984"
       width="207.88939"
       height="63.63961"
       id="rect20" />
  </defs>
  <g
     inkscape:label="Slānis 1"
     inkscape:groupmode="layer"
     id="layer1">
    <path
       id="path87"
       style="fill:#c8102e;fill-opacity:1;stroke-width:2.28028"
       d="m 56.402713,2.7729594 c -2.128824,0.1982283 -3.703576,1.560195 -5.478592,2.5015718 l -4.622594,-0.032896 c -1.02337,-0.0073 -1.85708,0.8198814 -1.857827,1.8432794 l -0.01267,16.0109408 c -8.6e-5,0.164502 0.13412,0.297435 0.298616,0.295773 l 0.715235,-0.0079 c 0.159635,-0.0018 0.288112,-0.131697 0.288179,-0.291342 l -0.0043,-15.9691963 c -9.7e-5,-0.4590517 0.37355,-0.8304242 0.832591,-0.82753 l 4.020611,0.024675 c -0.05148,0.1393458 -0.100522,0.3211225 -0.167342,0.5934426 -1.176026,0.1319134 -2.213905,0.2821636 -3.345551,0.7161818 -0.447349,0.1715712 -0.800439,0.7347746 -0.806016,1.2140907 -0.08798,7.5594112 -0.04652,15.4705212 -0.02326,18.9607582 0.0043,0.635633 0.528617,1.148225 1.164426,1.144814 l 2.865667,-0.0155 c 0.767524,-0.0041 1.535067,-0.0041 2.302598,0 l 3.077934,0.01614 c 0.65707,0.0034 1.191577,-0.528225 1.191631,-1.185304 L 56.813475,8.8380411 C 56.812906,8.4626591 56.5689,7.9745382 56.239644,7.7947698 55.468373,7.3736658 54.476437,7.093651 52.761864,6.9175759 52.575828,6.5014246 52.624273,6.2225128 52.425601,5.979644 c -0.01055,-0.00141 -0.02332,-0.00263 -0.03826,-0.0041 l 0.0024,-0.020563 c 2.760078,-0.1867098 4.845678,0.1357151 5.3258,1.1916307 L 57.944588,6.244738 C 56.909586,5.0195375 54.722145,5.2191995 52.669111,5.2704292 c 1.428763,-0.8815176 2.828351,-1.8942544 4.497006,-1.69397 z m -4.883882,5.8683171 c 1.683158,1.9328025 -1.0755,4.1182555 2.086224,7.0042735 0.507798,-0.784296 0.104026,-1.371072 0.04273,-1.985315 4.684322,4.101127 1.020541,7.70899 -0.40712,8.699826 1.246675,-4.048307 -1.655807,-4.338614 -1.956211,-6.246337 -0.262328,0.974259 -0.207338,4.977991 -1.367199,1.652846 -1.721942,1.420063 0.129126,4.386316 0.05693,4.608673 -4.040218,-2.509866 -2.971212,-6.286566 -1.627538,-7.687871 -0.01144,0.892674 -0.122753,1.773988 1.084389,2.353527 -1.283508,-4.607246 2.396635,-6.023018 2.087808,-8.3996225 z"
       sodipodi:nodetypes="ccscccccccccssscccscsscccccccccsccccccccss" />
    <g
       id="g9"
       transform="matrix(1.062785,0,0,1.062785,-574.12917,-26.45066)"
       style="fill:#c8102e;fill-opacity:1">
      <rect
         style="fill:#c8102e;fill-opacity:1;stroke:none;stroke-width:2.265;stroke-dasharray:none"
         id="rect8"
         width="8.8635292"
         height="24.870834"
         x="613.30414"
         y="30.691666" />
      <rect
         style="fill:#c8102e;fill-opacity:1;stroke:none;stroke-width:2.265;stroke-dasharray:none"
         id="rect9"
         width="8.8635292"
         height="24.870834"
         x="38.695316"
         y="-630.17133"
         transform="rotate(90)" />
    </g>
    <path
       id="rect11"
       style="fill:#c8102e;fill-opacity:1;stroke:none;stroke-width:0.753305"
       d="m 39.912146,31.971146 v 8.718332 h 26.324492 v -8.718332 z m 21.443653,1.03508 3.901054,3.271635 -3.901054,3.272151 z m -20.410124,0.256832 h 4.689636 v 1.438672 h -2.812748 v 0.90382 h 2.273763 v 1.383895 h -2.273763 v 1.018026 h 2.812748 v 1.488798 h -4.689636 z m 4.863269,0 h 2.228288 l 0.967899,1.675866 1.00459,-1.675866 h 1.717208 l -1.808158,2.894913 2.095996,3.338298 h -2.224154 l -1.150834,-1.959054 -1.159619,1.959054 h -1.753381 l 2.009179,-3.228227 z m 6.621301,0 h 1.913062 v 6.233211 h -1.913062 z m 2.456698,0 h 4.397148 v 1.493449 H 57.99218 v 4.739762 h -1.813326 v -4.739762 h -1.291911 z" />
    <path
       id="path91"
       style="fill:#c8102e;fill-opacity:1;stroke:none;stroke-width:0.909279"
       inkscape:transform-center-x="0.41485903"
       inkscape:transform-center-y="-5.1395913"
       d="m 98.6656,23.839078 c -0.791373,-0.0045 -13.71189,22.082095 -13.320119,22.769701 0.391771,0.687617 25.979589,0.833789 26.379199,0.1507 0.3996,-0.683084 -12.267708,-22.915878 -13.05908,-22.920401 z m -0.06632,5.06147 c 1.001113,0.0064 2.00131,0.09202 2.09119,0.251451 0.17976,0.318858 -1.833501,10.798491 -2.038414,11.863908 -0.0038,0.01857 -0.05112,0.06518 -0.06491,-2.84e-4 -0.223585,-1.059497 -2.258376,-11.596229 -2.084133,-11.890999 0.09313,-0.157552 1.095159,-0.230443 2.096267,-0.224076 z m -0.0044,12.7492 A 1.392088,1.392088 0 0 1 99.987032,43.0419 1.392088,1.392088 0 0 1 98.59488,44.434052 1.392088,1.392088 0 0 1 97.203012,43.0419 1.392088,1.392088 0 0 1 98.59488,41.649748 Z" />
    <g
       id="g1"
       transform="translate(-41.614353,31.955329)"
       style="fill:#c8102e;fill-opacity:1">
      <path
         id="path9"
         style="fill:#c8102e;fill-opacity:1;stroke:none;stroke-width:2.05166;stroke-dasharray:none"
         d="M 10.964705,1.0583333 A 10.964562,10.964562 0 0 0 0,12.023039 10.964562,10.964562 0 0 0 10.964705,22.987227 10.964562,10.964562 0 0 0 21.928894,12.023039 10.964562,10.964562 0 0 0 10.964705,1.0583333 Z m 0.04186,8.6640707 a 2.3427746,2.3641109 0 0 1 2.34301,2.364197 2.3427746,2.3641109 0 0 1 -2.34301,2.364197 2.3427746,2.3641109 0 0 1 -2.3424924,-2.364197 2.3427746,2.3641109 0 0 1 2.3424924,-2.364197 z" />
      <path
         style="fill:none;fill-opacity:1;stroke:#c8102e;stroke-width:1.82405;stroke-dasharray:none;stroke-opacity:1"
         d="M 9.0937431,24.518897 C 17.683108,24.465653 25.790943,20.975838 25.053522,9.1931549"
         id="path10"
         sodipodi:nodetypes="cc" />
      <circle
         style="fill:#c8102e;fill-opacity:1;stroke:#c8102e;stroke-width:1.50818;stroke-dasharray:none;stroke-opacity:1"
         id="path11"
         cx="24.741976"
         cy="8.5521383"
         r="0.78378505" />
    </g>
    <g
       id="g91"
       transform="translate(-652.32666,-39.226243)">
      <rect
         style="fill:#c8102e;fill-opacity:1;stroke:none;stroke-width:1.50693;stroke-dasharray:none;stroke-opacity:1"
         id="rect53"
         width="26.028387"
         height="4.2333336"
         x="652.79321"
         y="101.07083"
         ry="1.4111111" />
      <path
         style="fill:none;fill-opacity:1;stroke:#c8102e;stroke-width:1.67678;stroke-dasharray:none;stroke-opacity:1"
         d="m 654.69459,101.51119 c -0.20314,-8.594799 1.13551,-16.241186 5.14053,-18.371674 2.74316,-1.459246 9.16572,-1.44701 11.87077,0.191265 3.73818,2.263896 5.2046,9.68923 5.14905,17.988229"
         id="path83"
         sodipodi:nodetypes="cccc" />
      <rect
         style="fill:#c8102e;fill-opacity:1;stroke:#c8102e;stroke-width:1.665;stroke-dasharray:none;stroke-opacity:1"
         id="rect83"
         width="5.8869548"
         height="11.31094"
         x="662.74817"
         y="91.182037"
         ry="1.8520833" />
      <rect
         style="fill:#c8102e;fill-opacity:1;stroke:#c8102e;stroke-width:1.665;stroke-dasharray:none;stroke-opacity:1"
         id="rect84"
         width="0.1984375"
         height="3.9026041"
         x="665.59247"
         y="85.096619"
         ry="0.099218749" />
      <rect
         style="fill:#c8102e;fill-opacity:1;stroke:#c8102e;stroke-width:1.665;stroke-dasharray:none;stroke-opacity:1"
         id="rect85"
         width="0.1984375"
         height="3.9026041"
         x="536.93878"
         y="-413.82703"
         ry="0.099218749"
         transform="rotate(45)" />
      <rect
         style="fill:#c8102e;fill-opacity:1;stroke:#c8102e;stroke-width:1.665;stroke-dasharray:none;stroke-opacity:1"
         id="rect86"
         width="0.1984375"
         height="3.9026041"
         x="-404.21075"
         y="527.69666"
         ry="0.099218749"
         transform="matrix(-0.70710678,0.70710678,0.70710678,0.70710678,0,0)" />
      <rect
         style="fill:#c8102e;fill-opacity:1;stroke:#c8102e;stroke-width:1.665;stroke-dasharray:none;stroke-opacity:1"
         id="rect87"
         width="0.1984375"
         height="3.9026041"
         x="-404.21075"
         y="527.69666"
         ry="0.099218749"
         transform="matrix(-0.70710678,0.70710678,0.70710678,0.70710678,0,0)" />
      <rect
         style="fill:#c8102e;fill-opacity:1;stroke:#c8102e;stroke-width:1.665;stroke-dasharray:none;stroke-opacity:1"
         id="rect88"
         width="0.1984375"
         height="3.9026041"
         x="-94.1586"
         y="656.86121"
         ry="0.099218749"
         transform="rotate(-90)" />
      <rect
         style="fill:#c8102e;fill-opacity:1;stroke:#c8102e;stroke-width:1.665;stroke-dasharray:none;stroke-opacity:1"
         id="rect89"
         width="0.1984375"
         height="3.9026041"
         x="-415.09659"
         y="519.33374"
         ry="0.099218749"
         transform="rotate(-120)" />
      <rect
         style="fill:#c8102e;fill-opacity:1;stroke:#c8102e;stroke-width:1.665;stroke-dasharray:none;stroke-opacity:1"
         id="rect90"
         width="0.1984375"
         height="3.9026041"
         x="250.39458"
         y="-633.79376"
         ry="0.099218749"
         transform="matrix(0.5,-0.8660254,-0.8660254,-0.5,0,0)" />
      <rect
         style="fill:#c8102e;fill-opacity:1;stroke:#c8102e;stroke-width:1.665;stroke-dasharray:none;stroke-opacity:1"
         id="rect91"
         width="0.1984375"
         height="3.9026041"
         x="-94.1586"
         y="670.58649"
         ry="0.099218749"
         transform="rotate(-90)" />
    </g>
    <path
       id="path104"
       style="fill:#c8102e;fill-opacity:1;stroke-width:0"
       d="m -47.787716,6.714511 c -7.403363,12.482269 -8.426795,13.036851 -8.426795,17.770596 0,4.733745 3.837178,8.570921 8.570923,8.570921 4.733744,0 8.571313,-3.837176 8.571313,-8.570921 0,-4.733745 -1.564608,-5.576928 -8.715441,-17.770596 z m -6.557955,14.186544 c -0.145178,3.005266 2.613081,10.515508 7.61749,11.297366 -7.194866,-0.282436 -9.203889,-6.987171 -7.61749,-11.297366 z" />
    <path
       style="fill:#c8102e;fill-opacity:1;stroke:none;stroke-width:1.14717;stroke-dasharray:none;stroke-opacity:1"
       d="m -22.604719,20.470049 c -7.721603,-4.796757 -5.678613,-12.0144849 -3.110618,-14.6926139 -0.02194,1.706046 -0.234468,3.390164 2.072551,4.4977539 -2.452986,-8.8051821 4.580011,-11.5107217 3.989776,-16.0527915 3.216798,3.6938954 -2.055281,7.870302 3.987296,13.3859466 0.970504,-1.498919 0.19861,-2.620126 0.08136,-3.7940369 8.9525026,7.8378948 1.95043,14.7328788 -0.778044,16.6265188 2.382561,-7.736956 -3.164051,-8.291427 -3.738186,-11.9373809 -0.501351,1.8619539 -0.396291,9.5134619 -2.612979,3.1585759 -3.291047,2.714067 0.247046,8.383442 0.108825,8.808028 z"
       id="path94"
       sodipodi:nodetypes="cccccccccc" />
    <path
       id="path95"
       style="fill:#c8102e;fill-opacity:1;stroke:none;stroke-width:2.35043;stroke-dasharray:none;stroke-opacity:1"
       d="m 56.223421,46.22082 c -3.075673,1.752014 -6.253115,3.325816 -10.002601,3.898638 0.946523,7.548283 -3.059775,16.637838 9.970561,22.306055 C 68.891053,66.976704 65.54594,57.857901 66.321936,50.183341 62.914161,49.57005 59.54599,48.28268 56.223421,46.22082 Z m -0.09874,3.166742 c 2.254614,2.588996 -1.440583,5.516043 2.794569,9.381877 0.680216,-1.050572 0.139265,-1.836301 0.05708,-2.659084 6.274678,5.493477 1.367002,10.326107 -0.545347,11.653335 1.669906,-5.422723 -2.217673,-5.811346 -2.620075,-8.366747 -0.351388,1.30502 -0.2778,6.667844 -1.831449,2.213796 -2.306646,1.902252 0.17319,5.875719 0.07632,6.1733 -5.411972,-3.361971 -3.980127,-8.420636 -2.180261,-10.297693 -0.01536,1.195741 -0.164271,2.375935 1.452685,3.152226 -1.719265,-6.171421 3.210134,-8.067544 2.79645,-11.25101 z" />
    <g
       id="g98"
       transform="matrix(0.55509956,0,0,0.55509956,-307.43267,-3.616438)"
       style="fill:#c8102e;fill-opacity:1">
      <path
         style="fill:#c8102e;fill-opacity:1;stroke:none;stroke-width:0;stroke-dasharray:none;stroke-opacity:1"
         d="m 700.16729,156.59017 c 3.71192,0.92449 4.70268,-0.784 5.83383,-4.83732 8.02368,-11.54679 19.13375,-18.83235 27.46684,-28.87858 l 1.57784,0.66435 1.91,9.71616 c 3.92428,-1.59111 7.29726,-3.88389 8.80269,-8.55354 -5.86839,-2.74265 -9.9518,-8.51907 -14.53271,-12.74726 l -6.18679,-2.20068 4.94111,5.31483 -1.74393,2.15915 0.84888,0.79027 c -4.56383,4.33871 -5.05819,8.34765 -9.57428,12.09358 -7.80587,6.98018 -17.64301,19.00326 -21.08742,23.24032 0.32944,0.98512 0.17983,1.79061 1.74394,3.23872 z"
         id="path97"
         sodipodi:nodetypes="cccccccccccccc" />
      <path
         style="fill:#c8102e;fill-opacity:1;stroke:none;stroke-width:0;stroke-dasharray:none;stroke-opacity:1"
         d="m 744.01455,156.59017 c -3.71192,0.92449 -4.70268,-0.784 -5.83383,-4.83732 -8.02368,-11.54679 -19.13375,-18.83235 -27.46684,-28.87858 l -1.57784,0.66435 -1.91,9.71616 c -3.92428,-1.59111 -7.29726,-3.88389 -8.80269,-8.55354 5.86839,-2.74265 9.9518,-8.51907 14.53271,-12.74726 l 6.18679,-2.20068 -4.94111,5.31483 1.74393,2.15915 -0.84888,0.79027 c 4.56383,4.33871 5.05819,8.34765 9.57428,12.09358 7.80587,6.98018 17.64301,19.00326 21.08742,23.24032 -0.32944,0.98512 -0.17983,1.79061 -1.74394,3.23872 z"
         id="path98"
         sodipodi:nodetypes="cccccccccccccc" />
    </g>
    <g
       id="g102"
       transform="matrix(0.42573126,0,0,0.42573126,-284.92915,-129.61819)"
       style="fill:#c8102e;fill-opacity:1">
      <path
         id="path99"
         style="fill:#c8102e;fill-opacity:1;stroke:none;stroke-width:0;stroke-dasharray:none;stroke-opacity:1"
         d="m 801.29734,242.03587 c -3.29537,0.1027 -6.68178,0.80123 -8.51369,4.05609 -1.23552,2.19522 1.32186,6.07645 5.95313,2.84427 l 0.85989,1.5875 -0.0186,0.22065 c 14.57721,-2.90133 24.25605,7.22784 25.57001,11.62152 -6.87279,-6.55078 -13.04689,-11.7884 -25.58448,-10.2433 0.0624,-0.005 0.0911,-0.005 0.0972,-0.003 h 5.2e-4 v 5.2e-4 l -5.2e-4,5.2e-4 -5.2e-4,5.1e-4 c -0.0159,0.008 -0.19608,0.0288 -0.22221,0.014 -2.9e-4,-2.2e-4 -0.001,-8.1e-4 -0.002,-0.001 l -5.1e-4,-5.1e-4 v -5.2e-4 -5.2e-4 h -5.2e-4 v -5.1e-4 -5.2e-4 -5.2e-4 l 5.2e-4,-5.1e-4 v -5.2e-4 -5.2e-4 l 5.1e-4,-5.1e-4 c 0.003,-0.004 0.0116,-0.0104 0.0279,-0.0176 -11.44434,4.12522 -19.02898,11.69806 -19.24844,26.52448 0,0 0.0126,0.0877 0,0.52916 l 21.86688,-0.0346 c 1.47772,-2.17581 6.59735,-1.56683 6.70812,1.42368 l 20.70778,0.14056 c -0.19248,1.65405 -0.16406,1.1257 -0.28422,2.86185 l -20.82043,-0.22428 c -0.30611,1.20636 -2.26139,2.57428 -4.40749,1.93477 l 0.009,0.1819 c 1.16699,11.90924 24.08204,15.01976 30.79088,11.1125 -2.32717,-3.59611 -4.55167,-6.82661 -5.52317,-12.96459 0.12218,-1.45167 0.0268,-0.0783 0.29765,-2.96002 3.8453,-18.49086 -10.52592,-38.21204 -25.05945,-38.57749 -1.01735,-0.0256 -2.10548,-0.0575 -3.20394,-0.0233 z m 0.62942,2.49701 c 8.45324,-0.22625 18.88493,7.43577 22.75365,13.52992 -13.66423,-11.71083 -17.87234,-9.53076 -24.06468,-10.73423 -2.71384,-0.78974 -1.61764,-2.5983 -0.35037,-2.64273 0.54343,-0.088 1.09785,-0.13788 1.6614,-0.15296 z m -25.06875,37.91913 c -1.65893,1.7708 -3.06318,3.75945 -4.10518,6.05906 9.09991,-0.63955 24.63795,1.85121 27.91509,-5.51852 l -21.86636,-0.5023 c -0.38054,-0.005 -0.20682,-0.004 -0.12609,-0.004 z" />
      <circle
         style="fill:#c8102e;fill-opacity:1;stroke:none;stroke-width:0;stroke-dasharray:none;stroke-opacity:1"
         id="path102"
         cx="804.88788"
         cy="281.78818"
         r="2.0228963" />
    </g>
    <g
       id="g23"
       transform="matrix(0.23131282,0,0,0.23131282,-127.08944,-40.301197)"
       style="fill:#c8102e;fill-opacity:1">
      <path
         style="fill:#c8102e;fill-opacity:1;stroke:#0d1f3c;stroke-width:0"
         d="m 573.97942,174.22812 h 63.66641 v 10.64617 c -0.5375,2.69385 -2.08485,4.35994 -4.49791,4.56737 h -54.00808 c -2.88158,-0.32414 -4.57077,-1.69672 -5.15938,-4.6666 z"
         id="path7"
         sodipodi:nodetypes="ccccccc" />
      <path
         style="fill:none;fill-opacity:1;stroke:#c8102e;stroke-width:4.59383;stroke-linecap:round;stroke-dasharray:none;stroke-opacity:1"
         d="m 584.32092,186.53809 0.16955,13.21933 11.83464,11.41256"
         id="path8"
         sodipodi:nodetypes="ccc" />
      <path
         style="fill:none;fill-opacity:1;stroke:#c8102e;stroke-width:4.594;stroke-linecap:round;stroke-dasharray:none;stroke-opacity:1"
         d="m 627.34947,186.53809 -0.16955,13.21933 -11.83464,11.41256"
         id="path12"
         sodipodi:nodetypes="ccc" />
      <path
         style="fill:#c8102e;fill-opacity:1;stroke:none;stroke-width:3.8;stroke-dasharray:none;stroke-opacity:1"
         d="m 602.3948,194.99515 v 22.68802 h -19.71146 v 6.28386 c 0.72285,1.22694 1.47669,2.3609 2.54661,2.54661 h 39.58828 c 1.4886,-0.38651 2.22766,-1.39763 2.66237,-2.66237 v -6.0358 l -18.27278,-0.13229 v -22.75417 c 0.0521,-1.33862 -6.82191,-1.47189 -6.81302,0.0661 z"
         id="path13"
         sodipodi:nodetypes="ccccccccccc" />
      <path
         id="path14"
         style="fill:#c8102e;fill-opacity:1;stroke-width:0"
         d="m 605.58754,230.85654 c -6.98552,11.77778 -7.95119,12.30106 -7.95119,16.76764 0,4.46657 3.62061,8.08718 8.08718,8.08718 4.46658,0 8.08756,-3.62061 8.08756,-8.08718 0,-4.46658 -1.4763,-5.26218 -8.22355,-16.76764 z m -6.18783,13.38587 c -0.13698,2.83564 2.4656,9.92201 7.18757,10.65974 -6.7888,-0.26649 -8.68443,-6.59282 -7.18757,-10.65974 z" />
      <path
         id="path15"
         style="fill:#c8102e;fill-opacity:1;stroke-width:0"
         d="m 605.58754,258.90237 c -6.98552,11.77778 -7.95119,12.30106 -7.95119,16.76764 0,4.46657 3.62061,8.08718 8.08718,8.08718 4.46658,0 8.08756,-3.62061 8.08756,-8.08718 0,-4.46658 -1.4763,-5.26218 -8.22355,-16.76764 z m -6.18783,13.38587 c -0.13698,2.83564 2.4656,9.92201 7.18757,10.65974 -6.7888,-0.26649 -8.68443,-6.59282 -7.18757,-10.65974 z" />
      <path
         id="path17"
         style="fill:#c8102e;fill-opacity:1;stroke-width:0"
         d="m 626.12266,230.72464 c -0.16074,13.69261 -0.73539,14.62862 1.4979,18.4968 2.23327,3.86816 7.17912,5.19339 11.04728,2.96012 3.86817,-2.23329 5.19374,-7.17932 2.96045,-11.0475 -2.23329,-3.86817 -3.9096,-3.81903 -15.50563,-10.40942 z m 1.33413,14.68642 c 1.29919,2.52422 7.09626,7.35992 11.55448,5.63783 -6.01251,3.1636 -10.81735,-1.36735 -11.55448,-5.63783 z" />
      <path
         id="path19"
         style="fill:#c8102e;fill-opacity:1;stroke-width:0"
         d="m 586.53886,230.8442 c -11.93852,6.7071 -13.03645,6.67744 -15.26975,10.54562 -2.23329,3.86815 -0.90805,8.81399 2.9601,11.04728 3.86817,2.23329 8.81435,0.90825 11.04764,-2.95992 2.23329,-3.86817 1.35258,-5.29533 1.26201,-18.63298 z m -12.05175,8.4986 c -1.53644,2.38724 -2.82575,9.8255 0.89474,12.82539 -5.74602,-3.62519 -4.22452,-10.05178 -0.89474,-12.82539 z" />
      <path
         id="path20"
         style="fill:#c8102e;fill-opacity:1;stroke-width:0"
         d="m 571.98678,255.97962 c -11.93852,6.7071 -13.03645,6.67744 -15.26975,10.54562 -2.23329,3.86815 -0.90805,8.81399 2.9601,11.04728 3.86817,2.23329 8.81435,0.90825 11.04764,-2.95992 2.23329,-3.86817 1.35258,-5.29533 1.26201,-18.63298 z m -12.05175,8.4986 c -1.53644,2.38724 -2.82575,9.8255 0.89474,12.82539 -5.74602,-3.62519 -4.22452,-10.05178 -0.89474,-12.82539 z" />
      <path
         id="path21"
         style="fill:#c8102e;fill-opacity:1;stroke-width:0"
         d="m 641.99766,254.53714 c -0.16074,13.69261 -0.73539,14.62862 1.4979,18.4968 2.23327,3.86816 7.17912,5.19339 11.04728,2.96012 3.86817,-2.23329 5.19374,-7.17932 2.96045,-11.0475 -2.23329,-3.86817 -3.9096,-3.81903 -15.50563,-10.40942 z m 1.33413,14.68642 c 1.29919,2.52422 7.09626,7.35992 11.55448,5.63783 -6.01251,3.1636 -10.81735,-1.36735 -11.55448,-5.63783 z" />
      <path
         id="path22"
         style="fill:#c8102e;fill-opacity:1;stroke-width:0"
         d="m 624.29218,263.11703 c -3.69917,13.18444 -4.4965,13.93983 -3.34046,18.25422 1.15602,4.31437 5.59034,6.87452 9.90471,5.7185 4.31439,-1.15603 6.87492,-5.59045 5.71888,-9.90484 -1.15603,-4.31439 -2.78794,-4.70078 -12.28313,-14.06788 z m -2.51246,14.53129 c 0.60161,2.77446 4.94958,8.94578 9.7016,8.43624 -6.62644,1.49965 -10.09486,-4.12049 -9.7016,-8.43624 z" />
      <path
         id="path23"
         style="fill:#c8102e;fill-opacity:1;stroke-width:0"
         d="m 586.24012,262.21895 c -9.7958,9.56848 -10.864,9.824 -12.02004,14.13839 -1.15604,4.31436 1.40412,8.74868 5.71848,9.90472 4.31439,1.15604 8.74908,-1.40402 9.90512,-5.7184 1.15604,-4.31438 -0.064,-5.46497 -3.60356,-18.32471 z m -9.4415,11.32824 c -0.86622,2.70356 -0.18644,10.22206 4.18371,12.1568 -6.4885,-2.01448 -6.68217,-8.61589 -4.18371,-12.1568 z" />
    </g>
  </g>
</svg>
