<?xml version="1.0" encoding="UTF-8" standalone="no"?>
<!-- Created with Inkscape (http://www.inkscape.org/) -->

<svg
   width="100"
   height="100"
   viewBox="0 0 26.458335 26.458332"
   version="1.1"
   id="svg1"
   inkscape:version="1.4.3 (0d15f75, 2025-12-25)"
   sodipodi:docname="warning sign.svg"
   xmlns:inkscape="http://www.inkscape.org/namespaces/inkscape"
   xmlns:sodipodi="http://sodipodi.sourceforge.net/DTD/sodipodi-0.dtd"
   xmlns="http://www.w3.org/2000/svg"
   xmlns:svg="http://www.w3.org/2000/svg">
  <sodipodi:namedview
     id="namedview1"
     pagecolor="#ffffff"
     bordercolor="#000000"
     borderopacity="0.25"
     inkscape:showpageshadow="2"
     inkscape:pageopacity="0.0"
     inkscape:pagecheckerboard="0"
     inkscape:deskcolor="#d1d1d1"
     inkscape:document-units="mm"
     inkscape:zoom="3.3888047"
     inkscape:cx="188.26697"
     inkscape:cy="43.230582"
     inkscape:window-width="2304"
     inkscape:window-height="1190"
     inkscape:window-x="-11"
     inkscape:window-y="-11"
     inkscape:window-maximized="1"
     inkscape:current-layer="layer1" />
  <defs
     id="defs1">
    <rect
       x="2462.1458"
       y="171.11984"
       width="207.88939"
       height="63.63961"
       id="rect20" />
  </defs>
  <g
     inkscape:label="Slānis 1"
     inkscape:groupmode="layer"
     id="layer1">
    <path
       id="path87"
       style="fill:#c8102e;fill-opacity:1;stroke-width:2.28028"
       d="m 56.402713,2.7729594 c -2.128824,0.1982283 -3.703576,1.560195 -5.478592,2.5015718 l -4.622594,-0.032896 c -1.02337,-0.0073 -1.85708,0.8198814 -1.857827,1.8432794 l -0.01267,16.0109408 c -8.6e-5,0.164502 0.13412,0.297435 0.298616,0.295773 l 0.715235,-0.0079 c 0.159635,-0.0018 0.288112,-0.131697 0.288179,-0.291342 l -0.0043,-15.9691963 c -9.7e-5,-0.4590517 0.37355,-0.8304242 0.832591,-0.82753 l 4.020611,0.024675 c -0.05148,0.1393458 -0.100522,0.3211225 -0.167342,0.5934426 -1.176026,0.1319134 -2.213905,0.2821636 -3.345551,0.7161818 -0.447349,0.1715712 -0.800439,0.7347746 -0.806016,1.2140907 -0.08798,7.5594112 -0.04652,15.4705212 -0.02326,18.9607582 0.0043,0.635633 0.528617,1.148225 1.164426,1.144814 l 2.865667,-0.0155 c 0.767524,-0.0041 1.535067,-0.0041 2.302598,0 l 3.077934,0.01614 c 0.65707,0.0034 1.191577,-0.528225 1.191631,-1.185304 L 56.813475,8.8380411 C 56.812906,8.4626591 56.5689,7.9745382 56.239644,7.7947698 55.468373,7.3736658 54.476437,7.093651 52.761864,6.9175759 52.575828,6.5014246 52.624273,6.2225128 52.425601,5.979644 c -0.01055,-0.00141 -0.02332,-0.00263 -0.03826,-0.0041 l 0.0024,-0.020563 c 2.760078,-0.1867098 4.845678,0.1357151 5.3258,1.1916307 L 57.944588,6.244738 C 56.909586,5.0195375 54.722145,5.2191995 52.669111,5.2704292 c 1.428763,-0.8815176 2.828351,-1.8942544 4.497006,-1.69397 z m -4.883882,5.8683171 c 1.683158,1.9328025 -1.0755,4.1182555 2.086224,7.0042735 0.507798,-0.784296 0.104026,-1.371072 0.04273,-1.985315 4.684322,4.101127 1.020541,7.70899 -0.40712,8.699826 1.246675,-4.048307 -1.655807,-4.338614 -1.956211,-6.246337 -0.262328,0.974259 -0.207338,4.977991 -1.367199,1.652846 -1.721942,1.420063 0.129126,4.386316 0.05693,4.608673 -4.040218,-2.509866 -2.971212,-6.286566 -1.627538,-7.687871 -0.01144,0.892674 -0.122753,1.773988 1.084389,2.353527 -1.283508,-4.607246 2.396635,-6.023018 2.087808,-8.3996225 z"
       sodipodi:nodetypes="ccscccccccccssscccscsscccccccccsccccccccss" />
    <g
       id="g9"
       transform="matrix(1.062785,0,0,1.062785,-574.12917,-26.45066)"
       style="fill:#c8102e;fill-opacity:1">
      <rect
         style="fill:#c8102e;fill-opacity:1;stroke:none;stroke-width:2.265;stroke-dasharray:none"
         id="rect8"
         width="8.8635292"
         height="24.870834"
         x="613.30414"
         y="30.691666" />
      <rect
         style="fill:#c8102e;fill-opacity:1;stroke:none;stroke-width:2.265;stroke-dasharray:none"
         id="rect9"
         width="8.8635292"
         height="24.870834"
         x="38.695316"
         y="-630.17133"
         transform="rotate(90)" />
    </g>
    <path
       id="rect11"
       style="fill:#c8102e;fill-opacity:1;stroke:none;stroke-width:0.753305"
       d="m 39.912146,31.971146 v 8.718332 h 26.324492 v -8.718332 z m 21.443653,1.03508 3.901054,3.271635 -3.901054,3.272151 z m -20.410124,0.256832 h 4.689636 v 1.438672 h -2.812748 v 0.90382 h 2.273763 v 1.383895 h -2.273763 v 1.018026 h 2.812748 v 1.488798 h -4.689636 z m 4.863269,0 h 2.228288 l 0.967899,1.675866 1.00459,-1.675866 h 1.717208 l -1.808158,2.894913 2.095996,3.338298 h -2.224154 l -1.150834,-1.959054 -1.159619,1.959054 h -1.753381 l 2.009179,-3.228227 z m 6.621301,0 h 1.913062 v 6.233211 h -1.913062 z m 2.456698,0 h 4.397148 v 1.493449 H 57.99218 v 4.739762 h -1.813326 v -4.739762 h -1.291911 z" />
    <path
       id="path91"
       style="fill:#c8102e;stroke:none;stroke-width:0.909279;fill-opacity:1"
       inkscape:transform-center-x="0.41485903"
       inkscape:transform-center-y="-5.1395913"
       d="M 13.328849,1.5875007 C 12.537476,1.582968 -0.3830408,23.669596 0.00872996,24.357202 0.40050072,25.044819 25.988323,25.190991 26.387925,24.507902 26.787527,23.824818 14.120221,1.5920236 13.328849,1.5875007 Z m -0.06632,5.0614699 c 1.001113,0.00637 2.001308,0.092022 2.091193,0.2514508 0.179753,0.3188579 -1.833504,10.7984916 -2.038417,11.8639086 -0.0038,0.01857 -0.05112,0.06518 -0.06491,-2.84e-4 C 13.02681,17.704549 10.992019,7.1678168 11.166262,6.8730469 11.25939,6.7154943 12.261421,6.642604 13.262529,6.6489706 Z m -0.0044,12.7492004 a 1.392088,1.392088 0 0 1 1.392152,1.392152 1.392088,1.392088 0 0 1 -1.392152,1.392152 1.392088,1.392088 0 0 1 -1.391868,-1.392152 1.392088,1.392088 0 0 1 1.391868,-1.392152 z" />
  </g>
</svg>
