<?xml version="1.0" encoding="UTF-8" standalone="no"?>
<!-- Created with Inkscape (http://www.inkscape.org/) -->

<svg
   width="110mm"
   height="70mm"
   viewBox="0 0 110 70"
   version="1.1"
   id="svg1"
   inkscape:version="1.4.3 (0d15f75, 2025-12-25)"
   sodipodi:docname="LUA big shield landscape SVG.svg"
   xmlns:inkscape="http://www.inkscape.org/namespaces/inkscape"
   xmlns:sodipodi="http://sodipodi.sourceforge.net/DTD/sodipodi-0.dtd"
   xmlns="http://www.w3.org/2000/svg"
   xmlns:svg="http://www.w3.org/2000/svg">
  <sodipodi:namedview
     id="namedview1"
     pagecolor="#ffffff"
     bordercolor="#000000"
     borderopacity="0.25"
     inkscape:showpageshadow="2"
     inkscape:pageopacity="0.0"
     inkscape:pagecheckerboard="0"
     inkscape:deskcolor="#d1d1d1"
     inkscape:document-units="mm"
     inkscape:zoom="2"
     inkscape:cx="287"
     inkscape:cy="120.75"
     inkscape:window-width="1920"
     inkscape:window-height="974"
     inkscape:window-x="-11"
     inkscape:window-y="1285"
     inkscape:window-maximized="1"
     inkscape:current-layer="layer1" />
  <defs
     id="defs1">
    <rect
       x="1261"
       y="488"
       width="265"
       height="188.99998"
       id="rect19" />
  </defs>
   <style>
      #path4 {
         stroke-dasharray: 1.01 !important;
         stroke-dashoffset: 1.01;
         animation: lua-shield-draw 1.15s ease-out forwards, lua-shield-finish 0.01s linear 1.15s forwards;
      }

      #shield-finish {
         opacity: 0;
         animation: lua-shield-complete 0.01s linear 1.15s forwards;
      }

      #path5 {
         opacity: 0;
         animation: lua-flame-in 0.6s ease-out 1.08s forwards;
      }

      #wordmark {
         opacity: 0;
         transform: translateX(12px);
         transform-box: fill-box;
         transform-origin: center;
         animation: lua-wordmark-in 0.7s cubic-bezier(0.22, 1, 0.36, 1) 1.85s forwards;
      }

      @keyframes lua-shield-draw {
         to { stroke-dashoffset: 0; }
      }

      @keyframes lua-shield-finish {
         to { opacity: 0; }
      }

      @keyframes lua-shield-complete {
         to { opacity: 1; }
      }

      @keyframes lua-flame-in {
         from { opacity: 0; transform: translateY(3px); }
         to { opacity: 1; transform: translateY(0); }
      }

      @keyframes lua-wordmark-in {
         to { opacity: 1; transform: translateX(0); }
      }

      @media (prefers-reduced-motion: reduce) {
         #path4 { stroke-dashoffset: 0; animation: none; }
         #shield-finish { opacity: 1; animation: none; }
         #path5, #wordmark { opacity: 1; transform: none; animation: none; }
      }
   </style>
  <g
     inkscape:label="Slānis 1"
     inkscape:groupmode="layer"
     id="layer1">
    <g
       id="g1"
       transform="matrix(0.67031672,0,0,0.67031672,-0.73346278,10.773111)">
      <path
         style="fill:none;fill-opacity:0.605422;stroke:#0d1f3c;stroke-width:4.65589;stroke-dasharray:none;stroke-opacity:1"
         d="M 28.206215,8.7294598 C 34.78776,12.813723 41.45953,15.364138 48.209863,16.578993 46.672725,31.781252 53.299239,49.844351 28.14292,60.637696 2.3315711,49.409727 10.26739,31.404514 8.3924552,16.452386 15.819681,15.317706 22.113725,12.199952 28.206215,8.7294598 Z"
         id="path4"
         pathLength="1"
         sodipodi:nodetypes="ccccc" />
      <path
         id="shield-finish"
         style="fill:none;fill-opacity:0.605422;stroke:#0d1f3c;stroke-width:4.65589;stroke-dasharray:none;stroke-opacity:1"
         d="M 28.206215,8.7294598 C 34.78776,12.813723 41.45953,15.364138 48.209863,16.578993 46.672725,31.781252 53.299239,49.844351 28.14292,60.637696 2.3315711,49.409727 10.26739,31.404514 8.3924552,16.452386 15.819681,15.317706 22.113725,12.199952 28.206215,8.7294598 Z"
         sodipodi:nodetypes="ccccc" />
      <path
         style="fill:#c8102e;fill-opacity:1;stroke:none;stroke-width:1.81296;stroke-dasharray:none;stroke-opacity:1"
         d="m 23.448355,54.305369 c -12.203036,-7.580672 -8.974339,-18.987402 -4.915951,-23.21984 -0.03462,2.696188 -0.370547,5.357727 3.275409,7.108127 -3.876641,-13.91549 7.238139,-18.191243 6.30535,-25.369416 5.083744,5.837738 -3.24812,12.438022 6.301419,21.154796 1.533759,-2.368841 0.313871,-4.140767 0.128606,-5.995993 14.148305,12.38683 3.082415,23.283481 -1.229607,26.276149 3.765345,-12.227292 -5.000377,-13.103561 -5.907718,-18.865547 -0.792327,2.942603 -0.626286,15.034844 -4.129495,4.991744 -5.201084,4.289246 0.390421,13.248981 0.171987,13.91998 z"
         id="path5"
         sodipodi:nodetypes="cccccccccc" />
    </g>
          <g id="wordmark">
    <path
       style="font-size:48px;font-family:'Franklin Gothic Heavy';-inkscape-font-specification:'Franklin Gothic Heavy, ';letter-spacing:1.13px;white-space:pre;fill:#0d1f3c;fill-opacity:1;stroke-width:5.83864"
       d="m 55.047932,41.58267 v 6.50359 H 36.469105 V 21.586655 h 8.134287 V 41.58267 Z M 80.115051,21.586655 v 17.549913 q 0,4.989266 -2.970279,7.183052 -2.950853,2.174326 -7.707205,2.174326 -5.008696,0 -8.056671,-2.096707 -3.028514,-2.096632 -3.028514,-6.833584 v -17.977 h 8.270215 v 17.025763 q 0,1.902549 0.795956,2.776094 0.815372,0.873619 2.582011,0.873619 1.475448,0 2.407299,-0.621244 0.951268,-0.640615 1.125995,-1.436527 0.194128,-0.796031 0.194128,-3.106192 V 21.586655 Z M 99.45518,48.08626 97.96031,42.863975 h -7.105396 l -1.591907,5.222285 h -6.600633 l 8.19254,-26.499605 h 8.600266 l 8.2896,26.499605 z M 92.233308,37.078708 h 4.309815 l -2.154921,-7.687757 z"
       id="path6"
       aria-label="LUA" />
    <g
       id="text19"
       style="font-family:'Franklin Gothic Heavy';-inkscape-font-specification:'Franklin Gothic Heavy, ';text-align:center;white-space:pre;fill:#0d1f3c;stroke-width:18.3874"
       transform="matrix(0.45292365,0,0,0.45292365,-553.89067,-185.23648)"
       aria-label="LATVIJAS&#10;UGUNSDROŠĪBAS&#10;ASOCIĀCIJA&#10;">
      <path
         d="m 1521.258,520.34321 v 1.96289 h -5.6074 v -7.99805 h 2.4551 v 6.03516 z m 5.2676,1.96289 -0.4511,-1.57618 h -2.1446 l -0.4804,1.57618 h -1.9922 l 2.4726,-7.99805 h 2.5957 l 2.502,7.99805 z m -2.1797,-3.32227 h 1.3008 l -0.6504,-2.32031 z m 8.25,-2.75977 v 6.08204 h -2.3261 v -6.08204 h -1.6582 v -1.91601 h 5.6425 v 1.91601 z m 9.6094,-1.91601 -2.4844,7.99805 h -2.5019 l -2.5899,-7.99805 h 2.5899 l 1.2597,4.35937 q 0.129,0.38672 0.2286,0.76172 l 1.4765,-5.12109 z m 3.1934,0 v 7.99805 h -2.4551 v -7.99805 z m 5.0742,0 v 5.03906 q 0,1.16016 -0.2109,1.76953 -0.2051,0.60352 -0.8086,0.96094 -0.6036,0.35156 -1.6348,0.35156 -0.9082,0 -1.6406,-0.19336 v -1.91015 q 0.5156,0.14648 0.9609,0.14648 0.5273,0 0.75,-0.24023 0.2227,-0.2461 0.2227,-0.88477 v -5.03906 z m 5.5781,7.99805 -0.4512,-1.57618 h -2.1445 l -0.4805,1.57618 h -1.9921 l 2.4726,-7.99805 h 2.5957 l 2.502,7.99805 z m -2.1797,-3.32227 h 1.3008 l -0.6504,-2.32031 z m 4.5938,1.00781 2.2793,-0.41015 q 0.2871,0.96679 1.4765,0.96679 0.9258,0 0.9258,-0.49218 0,-0.25782 -0.2168,-0.39844 -0.2109,-0.14649 -0.7617,-0.25781 -2.1035,-0.4043 -2.7012,-1.05469 -0.5976,-0.65039 -0.5976,-1.5293 0,-1.13086 0.8554,-1.88086 0.8614,-0.75 2.4727,-0.75 2.4434,0 3.2285,1.96289 l -2.0332,0.61524 q -0.3164,-0.80274 -1.2832,-0.80274 -0.8027,0 -0.8027,0.49805 0,0.22266 0.1816,0.3457 0.1817,0.12305 0.7031,0.23438 1.4356,0.30469 2.0391,0.53906 0.6035,0.23438 1.0078,0.80273 0.4043,0.5625 0.4043,1.33008 0,1.21289 -0.9844,1.96875 -0.9843,0.75 -2.5839,0.75 -2.9239,0 -3.6094,-2.4375 z"
         id="path3" />
      <path
         style="fill:#c8102e"
         d="m 1498.7317,529.30805 v 5.29687 q 0,1.50586 -0.8965,2.16797 -0.8906,0.65625 -2.3262,0.65625 -1.5117,0 -2.4316,-0.63281 -0.9141,-0.63281 -0.9141,-2.0625 v -5.42578 h 2.4961 v 5.13867 q 0,0.57422 0.2402,0.83789 0.2461,0.26367 0.7793,0.26367 0.4454,0 0.7266,-0.1875 0.2871,-0.19336 0.3398,-0.43359 0.059,-0.24023 0.059,-0.9375 v -4.68164 z m 8.2207,3.51562 v 4.48243 h -1.2012 q -0.1465,-0.49805 -0.3223,-0.83789 -0.7441,0.96093 -2.2031,0.96093 -1.5469,0 -2.543,-1.07812 -0.996,-1.08399 -0.996,-2.92969 0,-1.79297 0.9609,-3.01172 0.9668,-1.22461 2.8711,-1.22461 1.4297,0 2.3027,0.72656 0.8731,0.72657 1.1309,2.0625 l -2.3789,0.23438 q -0.1758,-1.24805 -1.0957,-1.24805 -1.2071,0 -1.2071,2.29688 0,1.38867 0.3868,1.83398 0.3867,0.43946 0.9375,0.43946 0.4453,0 0.7558,-0.26954 0.3164,-0.26953 0.3223,-0.73828 h -1.3242 v -1.69922 z m 7.7812,-3.51562 v 5.29687 q 0,1.50586 -0.8965,2.16797 -0.8906,0.65625 -2.3261,0.65625 -1.5117,0 -2.4317,-0.63281 -0.914,-0.63281 -0.914,-2.0625 v -5.42578 h 2.4961 v 5.13867 q 0,0.57422 0.2402,0.83789 0.2461,0.26367 0.7793,0.26367 0.4453,0 0.7266,-0.1875 0.2871,-0.19336 0.3398,-0.43359 0.059,-0.24023 0.059,-0.9375 v -4.68164 z m 8.1504,7.99805 h -1.998 l -2.1914,-3.53321 q -0.4219,-0.67968 -0.8496,-1.65234 0.1933,0.77344 0.1933,1.3125 v 3.87305 h -1.9922 v -7.99805 h 2.3203 l 1.8633,2.92969 q 0.5567,0.87304 0.8438,1.53515 -0.1875,-1.02539 -0.1875,-2.09765 v -2.36719 h 1.998 z m 0.5684,-2.31446 2.2793,-0.41015 q 0.2871,0.96679 1.4765,0.96679 0.9258,0 0.9258,-0.49218 0,-0.25782 -0.2168,-0.39844 -0.2109,-0.14649 -0.7617,-0.25781 -2.1035,-0.4043 -2.7012,-1.05469 -0.5976,-0.65039 -0.5976,-1.5293 0,-1.13086 0.8554,-1.88086 0.8614,-0.75 2.4727,-0.75 2.4434,0 3.2285,1.96289 l -2.0332,0.61524 q -0.3164,-0.80274 -1.2832,-0.80274 -0.8027,0 -0.8027,0.49805 0,0.22266 0.1816,0.3457 0.1817,0.12305 0.7031,0.23438 1.4356,0.30469 2.0391,0.53906 0.6035,0.23438 1.0078,0.80273 0.4043,0.5625 0.4043,1.33008 0,1.21289 -0.9844,1.96875 -0.9843,0.75 -2.5839,0.75 -2.9239,0 -3.6094,-2.4375 z m 8.1152,2.31446 v -7.99805 h 3.0938 q 2.0156,0 3.0175,1.19531 1.002,1.19531 1.002,2.76563 0,1.79297 -1.0781,2.91797 -1.0723,1.11914 -2.7891,1.11914 z m 2.4551,-1.83985 h 0.6387 q 0.6093,0 1.0254,-0.59179 0.4218,-0.5918 0.4218,-1.61133 0,-0.87305 -0.375,-1.50586 -0.3691,-0.63281 -1.0722,-0.63281 h -0.6387 z m 12.8144,1.83985 h -2.7246 l -1.166,-3.0586 h -0.7734 v 3.0586 h -2.4551 v -7.99805 h 4.1777 q 1.3829,0 2.1446,0.65039 0.7675,0.64453 0.7675,1.70508 0,0.6914 -0.2812,1.22461 -0.2813,0.52734 -1.1367,0.93164 z m -4.664,-4.76954 h 1.0488 q 0.4629,0 0.7442,-0.19335 0.2812,-0.19336 0.2812,-0.56836 0,-0.76758 -0.9434,-0.76758 h -1.1308 z m 9.1875,4.89258 q -1.6875,0 -2.7539,-1.11914 -1.0606,-1.11914 -1.0606,-2.99414 0,-1.79297 1.0137,-2.95898 1.0195,-1.17188 2.8242,-1.17188 1.6699,0 2.7188,1.10156 1.0547,1.10157 1.0547,2.94141 0,1.9043 -1.0606,3.05274 -1.0605,1.14843 -2.7363,1.14843 z m -0.012,-1.8164 q 0.6211,0 0.8906,-0.53907 0.2754,-0.54492 0.2754,-1.98632 0,-2.08594 -1.1192,-2.08594 -1.207,0 -1.207,2.3789 0,2.23243 1.1602,2.23243 z m 4.0195,-0.6211 2.2793,-0.41015 q 0.2871,0.96679 1.4766,0.96679 0.9257,0 0.9257,-0.49218 0,-0.25782 -0.2168,-0.39844 -0.2109,-0.14649 -0.7617,-0.25781 -2.1035,-0.4043 -2.7012,-1.05469 -0.5976,-0.65039 -0.5976,-1.5293 0,-1.13086 0.8555,-1.88086 0.8613,-0.75 2.4726,-0.75 2.4434,0 3.2285,1.96289 l -2.0332,0.61524 q -0.3164,-0.80274 -1.2832,-0.80274 -0.8027,0 -0.8027,0.49805 0,0.22266 0.1816,0.3457 0.1817,0.12305 0.7032,0.23438 1.4355,0.30469 2.039,0.53906 0.6035,0.23438 1.0078,0.80273 0.4043,0.5625 0.4043,1.33008 0,1.21289 -0.9843,1.96875 -0.9844,0.75 -2.584,0.75 -2.9239,0 -3.6094,-2.4375 z m 1.3242,-8.23242 1.3594,-0.11719 0.9902,0.76172 0.9961,-0.76172 1.3594,0.11719 -2.3555,1.86328 z m 9.2461,2.54883 v 7.99805 h -2.4551 v -7.99805 z m -3.123,-1.06641 v -0.9082 h 3.791 v 0.9082 z m 4.5175,9.06446 v -7.99805 h 4.0606 q 1.2656,0 1.8457,0.63867 0.5801,0.63867 0.5801,1.45899 0,0.59765 -0.3399,1.08398 -0.334,0.48047 -1.0019,0.66211 1.5527,0.375 1.5527,1.86328 0,0.89063 -0.5508,1.59375 -0.5449,0.69727 -2.3379,0.69727 z m 2.2618,-4.9336 h 1.1367 q 0.4277,0 0.6035,-0.21679 0.1758,-0.2168 0.1758,-0.4629 0,-0.66796 -0.8203,-0.66796 h -1.0957 z m 0,3.15235 h 1.1953 q 0.4453,0 0.6504,-0.2168 0.2109,-0.22266 0.2109,-0.49805 0,-0.27539 -0.2051,-0.5039 -0.1992,-0.23438 -0.7383,-0.23438 h -1.1132 z m 9.8613,1.78125 -0.4512,-1.57618 h -2.1445 l -0.4805,1.57618 h -1.9922 l 2.4727,-7.99805 h 2.5957 l 2.5019,7.99805 z m -2.1797,-3.32227 h 1.3008 l -0.6504,-2.32031 z m 4.5937,1.00781 2.2793,-0.41015 q 0.2872,0.96679 1.4766,0.96679 0.9258,0 0.9258,-0.49218 0,-0.25782 -0.2168,-0.39844 -0.2109,-0.14649 -0.7617,-0.25781 -2.1035,-0.4043 -2.7012,-1.05469 -0.5977,-0.65039 -0.5977,-1.5293 0,-1.13086 0.8555,-1.88086 0.8613,-0.75 2.4727,-0.75 2.4433,0 3.2285,1.96289 l -2.0332,0.61524 q -0.3164,-0.80274 -1.2832,-0.80274 -0.8028,0 -0.8028,0.49805 0,0.22266 0.1817,0.3457 0.1816,0.12305 0.7031,0.23438 1.4356,0.30469 2.0391,0.53906 0.6035,0.23438 1.0078,0.80273 0.4043,0.5625 0.4043,1.33008 0,1.21289 -0.9844,1.96875 -0.9844,0.75 -2.584,0.75 -2.9238,0 -3.6094,-2.4375 z"
         id="path7" />
      <path
         d="m 1512.4455,552.3061 -0.4511,-1.57618 h -2.1446 l -0.4804,1.57618 h -1.9922 l 2.4726,-7.99805 h 2.5957 l 2.502,7.99805 z m -2.1796,-3.32227 h 1.3007 l -0.6504,-2.32031 z m 4.5937,1.00781 2.2793,-0.41015 q 0.2871,0.96679 1.4766,0.96679 0.9257,0 0.9257,-0.49218 0,-0.25782 -0.2167,-0.39844 -0.211,-0.14649 -0.7618,-0.25781 -2.1035,-0.4043 -2.7011,-1.05469 -0.5977,-0.65039 -0.5977,-1.5293 0,-1.13086 0.8555,-1.88086 0.8613,-0.75 2.4726,-0.75 2.4434,0 3.2285,1.96289 l -2.0332,0.61524 q -0.3164,-0.80274 -1.2832,-0.80274 -0.8027,0 -0.8027,0.49805 0,0.22266 0.1816,0.3457 0.1817,0.12305 0.7032,0.23438 1.4355,0.30469 2.039,0.53906 0.6035,0.23438 1.0078,0.80273 0.4043,0.5625 0.4043,1.33008 0,1.21289 -0.9843,1.96875 -0.9844,0.75 -2.584,0.75 -2.9238,0 -3.6094,-2.4375 z m 11.5723,2.4375 q -1.6875,0 -2.7539,-1.11914 -1.0606,-1.11914 -1.0606,-2.99414 0,-1.79297 1.0137,-2.95898 1.0195,-1.17188 2.8242,-1.17188 1.6699,0 2.7188,1.10156 1.0546,1.10157 1.0546,2.94141 0,1.9043 -1.0605,3.05274 -1.0605,1.14843 -2.7363,1.14843 z m -0.012,-1.8164 q 0.621,0 0.8906,-0.53907 0.2754,-0.54492 0.2754,-1.98632 0,-2.08594 -1.1192,-2.08594 -1.207,0 -1.207,2.3789 0,2.23243 1.1602,2.23243 z m 9.246,-1.35938 2.2442,0.13477 q -0.1582,1.4707 -1.0899,2.25586 -0.9257,0.78515 -2.2793,0.78515 -1.6289,0 -2.6308,-1.07812 -1.002,-1.07813 -1.002,-2.97656 0,-1.88086 0.9493,-3.03516 0.9492,-1.1543 2.6484,-1.1543 1.5879,0 2.4375,0.87891 0.8555,0.8789 0.9668,2.33203 l -2.291,0.12305 q 0,-0.80274 -0.3106,-1.16016 -0.3047,-0.35742 -0.7207,-0.35742 -1.1601,0 -1.1601,2.33203 0,1.30664 0.2988,1.77539 0.3047,0.46875 0.8496,0.46875 0.9727,0 1.0898,-1.32422 z m 5.5958,-4.94531 v 7.99805 h -2.4551 v -7.99805 z m 5.8066,7.99805 -0.4512,-1.57618 h -2.1445 l -0.4805,1.57618 h -1.9922 l 2.4727,-7.99805 h 2.5957 l 2.5019,7.99805 z m -2.1797,-3.32227 h 1.3008 l -0.6504,-2.32031 z m -1.0137,-5.74219 v -0.9082 h 3.791 v 0.9082 z m 10.834,6.01172 2.2442,0.13477 q -0.1582,1.4707 -1.0899,2.25586 -0.9258,0.78515 -2.2793,0.78515 -1.6289,0 -2.6308,-1.07812 -1.002,-1.07813 -1.002,-2.97656 0,-1.88086 0.9492,-3.03516 0.9492,-1.1543 2.6485,-1.1543 1.5879,0 2.4375,0.87891 0.8554,0.8789 0.9668,2.33203 l -2.2911,0.12305 q 0,-0.80274 -0.3105,-1.16016 -0.3047,-0.35742 -0.7207,-0.35742 -1.1602,0 -1.1602,2.33203 0,1.30664 0.2989,1.77539 0.3047,0.46875 0.8496,0.46875 0.9726,0 1.0898,-1.32422 z m 5.5957,-4.94531 v 7.99805 h -2.4551 v -7.99805 z m 5.0742,0 v 5.03906 q 0,1.16016 -0.2109,1.76953 -0.2051,0.60352 -0.8086,0.96094 -0.6035,0.35156 -1.6348,0.35156 -0.9082,0 -1.6406,-0.19336 v -1.91015 q 0.5156,0.14648 0.961,0.14648 0.5273,0 0.75,-0.24023 0.2226,-0.2461 0.2226,-0.88477 v -5.03906 z m 5.5782,7.99805 -0.4512,-1.57618 h -2.1445 l -0.4805,1.57618 h -1.9922 l 2.4727,-7.99805 h 2.5957 l 2.5019,7.99805 z m -2.1797,-3.32227 h 1.3008 l -0.6504,-2.32031 z"
         id="path8" />
    </g>
          </g>
    <path
       style="fill:#c8102e;fill-opacity:1;stroke:none;stroke-width:0.0718258;stroke-opacity:1"
       d="m 275.00716,67.086914 c 1.3306,-5.4e-4 3.50677,-5.4e-4 4.83594,0 1.32916,5.41e-4 0.24049,9.83e-4 -2.41927,9.83e-4 -2.65977,0 -3.74727,-4.42e-4 -2.41667,-9.83e-4 z"
       id="path2"
       transform="scale(0.26458333)" />
  </g>
</svg>
