<svg xmlns="http://www.w3.org/2000/svg" xmlns:xlink="http://www.w3.org/1999/xlink" width="35" height="40" viewBox="0 0 35 40">
    <defs>
        <path id="a" d="M0 39.057h34.944V.02H0z"/>
    </defs>
    <g fill="none" fill-rule="evenodd">
        <path fill="#E82B31" d="M0 29.143h34.944V.073H0z"/>
        <path fill="#FFF" d="M14.452 6.172V3.047H6.344V26.45H9.48V15.81h4.108v-3.124H9.48V6.172zM23.56 3.047v9.983l-3.442-9.983H16.98V26.45h3.136V11.3l3.443 9.986v5.162h3.136V3.047zM32.174 7.298l-1.642 1.274-1.643-1.274v-4.25h2.544l.741.772z"/>
        <path fill="#0054A0" d="M0 39.11h34.944v-7.607H0z"/>
        <g transform="translate(0 .053)">
            <path fill="#FFF" d="M4.349 36.53c.22.134.543.247.882.247.503 0 .797-.265.797-.648 0-.355-.203-.558-.718-.755-.622-.22-1.006-.54-1.006-1.076 0-.591.492-1.03 1.232-1.03.39 0 .673.09.843.185l-.136.4a1.523 1.523 0 0 0-.724-.18c-.52 0-.718.31-.718.57 0 .354.232.529.758.731.644.248.972.558.972 1.116 0 .586-.435 1.093-1.334 1.093-.367 0-.769-.108-.972-.243l.124-.41zM10.533 35.346h-1.48v1.369h1.65v.411H8.56V33.33h2.058v.412H9.052v1.2h1.481zM13.19 35.11h.503c.526 0 .86-.288.86-.721 0-.49-.357-.705-.877-.71-.237 0-.407.022-.486.045v1.386zm-.492-1.73c.249-.05.605-.079.944-.079.526 0 .865.096 1.103.31.192.17.3.428.3.721 0 .502-.317.834-.719.97v.016c.294.101.47.372.56.766.124.53.215.896.294 1.042h-.509c-.062-.107-.147-.434-.254-.907-.113-.524-.317-.72-.763-.738h-.464v1.645h-.492V33.38zM18.023 37.126L16.78 33.33h.532l.593 1.87c.164.513.306.975.408 1.42h.01c.108-.44.266-.918.436-1.414l.645-1.876h.525l-1.362 3.797h-.543z"/>
            <mask id="b" fill="#fff">
                <use xlink:href="#a"/>
            </mask>
            <path fill="#FFF" d="M21.697 37.126h.492V33.33h-.492zM24.337 36.53c.22.134.543.247.882.247.503 0 .797-.265.797-.648 0-.355-.203-.558-.718-.755-.622-.22-1.006-.54-1.006-1.076 0-.591.492-1.03 1.232-1.03.39 0 .673.09.843.185l-.136.4a1.523 1.523 0 0 0-.723-.18c-.52 0-.719.31-.719.57 0 .354.232.529.758.731.645.248.972.558.972 1.116 0 .586-.435 1.093-1.334 1.093-.367 0-.769-.108-.972-.243l.124-.41zM28.48 36.53c.221.134.543.247.883.247.503 0 .797-.265.797-.648 0-.355-.204-.558-.718-.755-.622-.22-1.007-.54-1.007-1.076 0-.591.492-1.03 1.233-1.03.39 0 .673.09.842.185l-.135.4a1.523 1.523 0 0 0-.724-.18c-.52 0-.718.31-.718.57 0 .354.232.529.758.731.644.248.972.558.972 1.116 0 .586-.435 1.093-1.334 1.093-.368 0-.77-.108-.973-.243l.125-.41z" mask="url(#b)"/>
        </g>
    </g>
</svg>
