<?xml version="1.0" encoding="utf-8"?>
<!-- Generator: Adobe Illustrator 15.0.0, SVG Export Plug-In . SVG Version: 6.00 Build 0)  -->
<!DOCTYPE svg PUBLIC "-//W3C//DTD SVG 1.1//EN" "http://www.w3.org/Graphics/SVG/1.1/DTD/svg11.dtd">
<svg version="1.1" id="Layer_1" xmlns:sketch="http://www.bohemiancoding.com/sketch/ns"
	 xmlns="http://www.w3.org/2000/svg" xmlns:xlink="http://www.w3.org/1999/xlink" x="0px" y="0px" width="140px" height="68px"
	 viewBox="0 0 140 68" enable-background="new 0 0 140 68" xml:space="preserve">
<title>logo</title>
<desc>Created with Sketch.</desc>
<g id="Home" sketch:type="MSPage">
	<g id="global-home-20" transform="translate(-101.000000, -62.000000)" sketch:type="MSArtboardGroup">
		<g id="navbar" transform="translate(50.000000, 40.000000)" sketch:type="MSLayerGroup">
			<g id="logo" transform="translate(51.000000, 22.000000)" sketch:type="MSShapeGroup">
				<path id="Fill-1" fill="#C0995D" d="M88.24,10.26c-1.34-1-4.24-4.75-8.431-5.31C75.61,4.4,69.14,6.58,67.96,6.77
					c-1.15,0.19-3.47-0.27-3.49-0.22c0,0.05,3.15,1.26,5.68,1.78c2.53,0.53,2.31-0.03,8.28,0.49c5.98,0.51,8.66,2.55,10.33,2.84
					c1.67,0.3,2.82,0.3,2.82,0.09C91.58,11.55,89.58,11.27,88.24,10.26z M79.88,3.42c-1.26-0.82-4.46-3.27-7.62-2.12
					c-3.15,1.15-5.27,2.98-6.75,3.42c-1.49,0.45-4.35,0.48-4.35,0.48s2.64,1.05,5.76,0.53c3.12-0.53,6.72-2.42,9.76-2.05
					c3.051,0.37,2.75,0.52,3.53,0.6c0.78,0.07,1.34,0.06,1.34-0.11C81.55,3.99,81.14,4.24,79.88,3.42z M67.88,0
					c-1.86-0.07-3.71,2.01-5.5,3.27c-1.64,1.17-4.34,1.4-4.74,1.43c0.41,0,3.53-0.02,5.74-0.53c2.38-0.56,4.94-2.68,6.06-3.24
					c1.11-0.55,2.34-0.21,2.34-0.34C71.78,0.4,69.74,0.08,67.88,0z M62.37,14.84l-0.45-1.71c-0.94-1.28-2.16-1.51-3.49-2.2
					l-0.18-0.44l1.35,0.02c0.05-0.26-0.07-0.6-0.17-0.76c-1.21,0.01-2.22-0.02-3.48-0.42c-1.58,0.47-2.42,1.27-3.34,2.42
					c0.52,0.11,0.94-0.1,1.46,0c2.75,0.32,4.77,1.69,6.68,3.45l0.09-0.39c-0.53-1.32-1.81-2.27-2.68-3.26
					C60.12,12.5,61.04,13.48,62.37,14.84z"/>
				<path fill="#C0995D" d="M82.45,38.13c-0.69-0.25-1.37-0.5-2.04-0.77c-1.8-1.051-0.62-2.221-1.97-3.45
					c0.55-0.14,0.56-1.28,0.56-1.36c-3.75,0.55-7.29,1.65-10.49,3.4c-2.24-2.1-5.57-3.18-8.39-4.46c-0.79-0.43-1.57-0.89-2.34-1.37
					c-1.51-0.95-2.95-2.01-4.24-3.2c-1.05-0.98-2-2.04-2.8-3.21l0.37,1.42c-1.32-0.57-2.78-1.1-4.28-1.42
					c-0.6-0.13-1.21-0.23-1.82-0.28c0.03,0.1,0.07,0.19,0.13,0.28c0.28,0.39,0.86,0.6,1.28,0.69c-0.34,0.33-0.6,0.28-1.11,0.17
					c-0.26-0.28-0.57-0.56-0.85-0.86c-0.54-0.57-0.96-1.19-0.69-2.03c0.71-1.46,2.56-0.66,3.88-0.52l0.31-0.2
					c-0.41-0.38-1.04-0.31-1.63-0.46c-0.22-0.05-0.44-0.14-0.63-0.29c-0.59-0.4-1.15-0.92-0.76-1.51c1.35-2.54,3.09,0.66,4.56,0.7
					c-0.53-0.65-1.32-1.35-1.7-2.1v-0.01c0.21-0.36,0.88-0.35,1.42-0.37c0.22,0.12,0.45,0.25,0.67,0.38c1.79,1.03,3.56,2.19,5.4,3.2
					c0.77,0.42,1.54,0.82,2.34,1.17c1.24,0.51,2.14,1.62,3.36,2.04c0.12,0.04,0.23,0.07,0.36,0.1c3.35,0.04,6.51,1.65,9.39,2.67
					c-0.23-0.86-1-1.02-1.53-1.67c-0.35-0.34-0.67-0.71-0.97-1.1c-0.73-0.96-1.33-2.06-1.86-3.21c-0.5-1.05-0.93-2.15-1.36-3.2
					c-0.39-0.93-0.77-1.84-1.19-2.66c0,0,0.17,1.13,0.43,2.66c0.17,0.97,0.38,2.1,0.61,3.2c0.25,1.18,0.53,2.33,0.81,3.21
					c0.03,0.08,0.05,0.15,0.08,0.23c-0.06-0.08-0.11-0.15-0.17-0.23c-0.81-1.1-1.67-2.19-2.6-3.21c-1.08-1.18-2.25-2.27-3.55-3.2
					c-0.25-0.18-0.51-0.36-0.77-0.53c0,0,0.08,0.2,0.22,0.53c0.31,0.71,0.88,2.03,1.41,3.2c0.32,0.7,0.61,1.35,0.83,1.78l-0.15,0.1
					c-0.64-0.81-1.56-1.54-2.75-1.66c-0.54,0.25-0.99,0.08-1.42-0.22c-0.53-0.36-1.04-0.9-1.66-1.11L56,17.3v-0.01
					c0.33-1.55-0.92-2.63-1.63-3.72l-2.26,1.14c-1.23-0.54-1.68-1.57-1.95-2.84l1.12-0.84c-0.05-0.42-0.82-0.58-1.18-0.79
					c1.48-0.63,2.83-1.28,4.28-1.78c1.92-0.81,4.47-0.13,6.24,1.05L60.7,9.2l-3.41-2.34c-0.98,0.19-1.94,0.86-2.87,0.8
					c0.8-2.53,3.06-2.96,3.06-2.96s3.1-0.84,4.03-1.79c1.03-1.07,3.08-2.4,3.08-2.53c0-0.12-2.3-0.07-3.28,0.24
					c-1.61,0.6-2.38,2.8-4.51,4.04c-1.5,0.76-2.78,1.7-3.14,3.37l-4.97,1.91l-0.11,0.51c0.66,0.68,1.18,2.01,1.48,3.15
					c-0.05,0.25-0.39-0.09-0.54,0.02c-0.35-0.89-0.49-2.13-1.52-2.35l-0.08,0.39c0.53,0.65,0.78,1.38,1,2.23
					c0.74,0.97,2.37,0.91,3.23,1.9c0.37,0.45,0.66,0.95,0.75,1.51c0.04,0.25,0.03,0.52-0.03,0.8c-0.61-0.17-1.19-0.48-1.76-0.8
					c-1.33-0.75-2.61-1.57-4.08-0.85c-0.49,0.52-1.17,0.64-1.78,0.85c-0.45,0.16-0.86,0.37-1.13,0.82
					c-0.65,0.54-0.27,1.29-0.12,1.86c-0.29,0.23-0.49,0.37-0.65,0.52c-0.21,0.2-0.34,0.41-0.43,0.85c-0.35-0.31-0.68-0.59-1.01-0.85
					c-0.86-0.67-1.7-1.2-2.9-1.76c-1.78-0.83-3.13-0.48-4.16-0.03c-0.28,1.29-1.53,0.21-2.13,1.16c-0.14,0.21-0.27,0.42-0.38,0.63
					h0.99c0.04-0.07,0.07-0.14,0.1-0.21c0.28-0.07,0.38,0.03,0.4,0.21c0.05,0.4-0.26,1.21,0.02,1.63c0.02,0.54,0.17,1.11,0.47,1.58
					c0,0,0,0,0,0.01c-0.31,0.2-0.19,0.65-0.81,0.27c-0.15-0.09-0.27-0.18-0.38-0.28c-1.04-0.95-0.28-2.22,0.2-3.21l-0.99,0.01
					c-0.42,0.76-0.7,1.59-0.44,2.56c0.06,0.23,0.13,0.44,0.21,0.64c0.22,0.56,0.53,0.98,1.14,1.26c0.9,0.4,1.86,0.12,2.51-0.41
					c1.2,0.69,1.99,1.48,2.68,2.35c0.77,0.98,1.41,2.06,2.38,3.21c1.09,1.29,2.58,2.68,5.11,4.13c0.66,0.68,2.49,0.94,2.19,2.36
					c3.89-1.2,7.9-3.57,12.2-2.92c0.55-0.02,0.3-0.74,0.84-0.76c2.23,0.88,4.5,1.629,6.34,3.1c0.36,0.21,0.09,0.819,0.73,0.96
					l2.01-1.19c1.88,0.84,3.819,1.62,5.77,2.33c16.92,6.22,35.221,7.99,35.271,7.74C111.28,45.6,95.89,43.05,82.45,38.13z
					 M60.4,18.96c0.45,0.39,0.93,0.94,1.39,1.54c0.8,1.05,1.57,2.25,2.17,3.06l-1.39-0.43c-0.42-0.75-0.91-1.73-1.37-2.63
					C60.9,19.92,60.63,19.38,60.4,18.96z M53.77,17.3c0-0.03-0.02-0.07-0.04-0.09c0.05,0.03,0.09,0.06,0.13,0.09
					c0.44,0.4,0.34,0.99,0.47,1.51C53.14,19.07,53.93,17.84,53.77,17.3z M47.29,24.43c1.16,0.32,0.82,0.1,1.55,0.45
					c-1.08,0.21-1.11,0.83-2.26,0.1C46.94,24.83,47.01,24.79,47.29,24.43z M35.7,22.93c-0.8-0.03-1.02-0.89-0.86-1.66
					c0.03-0.27,0.08-0.53,0.14-0.77c0.25-0.93,0.81-1.59,1.96-1.45c1.73,0.26,2.46,0.68,3.4,1.45c0.27,0.22,0.55,0.46,0.87,0.74
					c0.95,0.97,1.16,1.36,2.27,2.47c0.45,0.44,1.04,1,1.87,1.76c-1.06-0.67-1.98-1.23-2.91-1.76c-1.26-0.73-2.53-1.38-4.17-2.12
					c0.29-0.07,0.77,0.17,0.73-0.25c-0.82-0.58-1.63,0.06-2.25,0.47C36.41,22.14,36.37,22.94,35.7,22.93z M52.53,32.3
					c-1.65,0.77-4.82,1.27-4.34,0.88c0.43-0.35-2.73-1.51-4.61-2.91c-0.05-0.05-0.1-0.1-0.15-0.15c-1.27-1.26-2.43-2.33-3.42-3.2
					c-2.29-2.01-3.72-3-3.72-3s0.04-0.08,0.12-0.21c0.27-0.44,0.99-1.36,1.96-0.84c0.43,0.23,0.93,0.52,1.49,0.84
					c1.61,0.94,3.63,2.2,5.27,3.21c1.53,0.93,2.73,1.65,2.95,1.69c1.55,0.24,1.49-0.04,2.16-0.22c-0.11,0.48-0.4,0.66-0.97,0.71
					c0.67,0.28,1.32,0.28,2.05,0.02c0.95-0.43,1.08-0.85,1.36-1.74c0,0,1.82,1.5,3.46,2.74c0.2,0.15,0.4,0.3,0.59,0.44
					C54.13,30.65,54,31.83,52.53,32.3z"/>
				<path fill="#C0995D" d="M57.83,17.3c-0.04,0.33-0.11,0.68-0.26,0.94c-0.3,0.55-0.65,1.23-1.17,1.12l-0.24-0.24
					c0.42-0.48,0.69-1.14,0.83-1.82c0.09-0.45,0.13-0.92,0.11-1.35c0.31-0.2,0.52,0.11,0.75,0.3C57.85,16.25,57.89,16.75,57.83,17.3
					z"/>
				<path fill="#C0995D" d="M33.62,26.39c-1.05,0.36-2.01-0.26-2.57-1.22c-0.28-0.48-0.28-1-0.27-1.46
					c0.01-0.17,0.02-0.33,0.01-0.48c0.08-0.38,0.45-0.84,0.74-0.92c-0.04,0.53-0.08,0.97-0.02,1.4c0.04,0.32,0.13,0.62,0.32,0.96
					c0.42,0.73,1.47,1.07,2.42,0.82c0.32-0.08,0.29-0.25,0.52-0.06C34.91,26,34.17,26.21,33.62,26.39z"/>
				<path fill="#C0995D" d="M77.31,31.04c-3.439,1.05-8.77,3.97-8.77,3.97s-3.63-2.28-5.84-3.29c-1.07-0.48-2.14-1.01-3.18-1.6
					c-1.65-0.93-3.23-1.99-4.62-3.2c-0.93-0.81-1.77-1.67-2.51-2.61c0,0,1.72,1.23,4.05,2.61c1.98,1.17,4.4,2.46,6.59,3.2
					c0.64,0.22,1.26,0.39,1.85,0.5c1.67,0.36,3.41,0.15,4.83-0.23c0.04,1.09-0.79,1.49-1.7,1.97c1.05,0.09,2.38-0.43,3.21-1.2
					c0.29-0.31,0.49-0.66,0.641-1.04c0.38-1.01,0.35-2.21,0.27-3.2c1.26,1,2.82,2.1,4.14,3.2C76.64,30.43,76.99,30.73,77.31,31.04z"
					/>
				<path fill="#C0995D" d="M99.95,29.67c0,0.09-0.84,0.27-1.97,0.45c-1.641,0.26-3.91,0.52-5.11,0.49
					c-1.48-0.04-5.24,0.46-8.74-0.49c-1.26-0.35-2.5-0.88-3.57-1.71c-0.569-0.44-1.22-0.99-1.77-1.49c-0.04-0.03-0.07-0.06-0.1-0.09
					c-1.07-0.99-2.08-2.03-3.03-3.12c-0.93-1.06-1.79-2.15-2.58-3.21c-0.84-1.12-1.59-2.21-2.24-3.2c-1.6-2.44-2.56-4.26-2.68-4.48
					c0.11,0.11,1.96,2.19,4.149,4.48c1.04,1.09,2.16,2.22,3.2,3.2c1.11,1.06,2.13,1.94,2.88,2.44c0.38,0.25,0.811,0.51,1.271,0.77
					c1.939,1.1,4.46,2.22,6.7,3.12c0.069,0.03,0.13,0.05,0.199,0.08c1.2,0.47,2.46,0.96,3.32,1.25
					C92.79,29.17,99.95,29.45,99.95,29.67z"/>
				<path fill="#C0995D" d="M112.2,25.44c0,0.19-16.561,0.85-26.71-1.73c-1.4-0.36-2.69-0.78-3.79-1.27
					c-1.03-0.47-2.141-1.14-3.26-1.94c-1.33-0.95-2.69-2.07-3.95-3.2c-3.36-3.01-6.09-6.09-6.27-6.29c0.21,0.13,3.65,2.26,6.33,3.42
					c1.48,0.65,3.95,1.47,7.37,2.87c2.03,0.83,4.38,1.87,7.05,3.2c1.24,0.62,2.55,1.3,3.931,2.06c0.83,0.45,1.85,0.83,2.989,1.15
					C102.28,25.49,112.2,25.25,112.2,25.44z"/>
				<path fill="#C0995D" d="M100.43,19.69c0,0-1.93,0.89-6.949-0.22c-2.271-0.51-4.11-1.29-5.99-2.17
					c-2.271-1.07-4.59-2.27-7.76-3.28c-5.79-1.85-6.44-1.84-8.53-3.04c-1.97-1.12-3.19-1.99-3.34-2.09c0.2,0.07,2.52,0.9,4.24,1.14
					c1.801,0.26,13.841,1.66,18.29,4.08c2.13,1.15,3.45,2.31,4.45,3.19c0.68,0.59,1.22,1.06,1.771,1.31
					C97.98,19.25,100.43,19.41,100.43,19.69z"/>
				<path id="Fill-8" fill="#004288" d="M138.73,58.31l-0.03-0.04h-0.51l0.239,0.33h0.61V58.49
					C138.9,58.49,138.81,58.42,138.73,58.31z M137.32,58.29V58.27h-0.44c-0.02,0.181-0.12,0.24-0.33,0.24v0.09h1.12V58.49
					C137.53,58.49,137.32,58.47,137.32,58.29z M139.55,58.27c-0.34,0.65-1.03,1.101-1.819,1.101c-0.79,0-1.461-0.45-1.801-1.101
					h-0.26c0.35,0.78,1.14,1.32,2.061,1.32c0.92,0,1.72-0.54,2.069-1.32H139.55z M138,57.34c0.34-0.05,0.64-0.28,0.64-0.64
					c0-0.48-0.46-0.7-0.89-0.7c-0.38,0-0.77,0.01-1.16,0.01v0.11c0.29-0.01,0.29,0.07,0.29,0.32v1.829h0.44v-0.88h0.21l0.66,0.88
					h0.51L138,57.34z M137.31,57.25v-1.02c0.04-0.011,0.08-0.011,0.12-0.011c0.34,0,0.78,0.09,0.78,0.5
					C138.21,57.16,137.65,57.22,137.31,57.25z M138.73,58.31l-0.03-0.04l-0.7-0.93c0.34-0.05,0.64-0.28,0.64-0.64
					c0-0.48-0.46-0.7-0.89-0.7c-0.38,0-0.77,0.01-1.16,0.01v0.11c0.29-0.01,0.29,0.07,0.29,0.32v1.829
					c-0.02,0.181-0.12,0.24-0.33,0.24v0.09h1.12V58.49c-0.14,0-0.35-0.021-0.35-0.2v-0.9h0.21l0.66,0.88l0.239,0.33h0.61V58.49
					C138.9,58.49,138.81,58.42,138.73,58.31z M137.31,57.25v-1.02c0.04-0.011,0.08-0.011,0.12-0.011c0.34,0,0.78,0.09,0.78,0.5
					C138.21,57.16,137.65,57.22,137.31,57.25z M138.73,58.31l-0.03-0.04l-0.7-0.93c0.34-0.05,0.64-0.28,0.64-0.64
					c0-0.48-0.46-0.7-0.89-0.7c-0.38,0-0.77,0.01-1.16,0.01v0.11c0.29-0.01,0.29,0.07,0.29,0.32v1.829
					c-0.02,0.181-0.12,0.24-0.33,0.24v0.09h1.12V58.49c-0.14,0-0.35-0.021-0.35-0.2v-0.9h0.21l0.66,0.88l0.239,0.33h0.61V58.49
					C138.9,58.49,138.81,58.42,138.73,58.31z M137.31,57.25v-1.02c0.04-0.011,0.08-0.011,0.12-0.011c0.34,0,0.78,0.09,0.78,0.5
					C138.21,57.16,137.65,57.22,137.31,57.25z M138.73,58.31l-0.03-0.04l-0.7-0.93c0.34-0.05,0.64-0.28,0.64-0.64
					c0-0.48-0.46-0.7-0.89-0.7c-0.38,0-0.77,0.01-1.16,0.01v0.11c0.29-0.01,0.29,0.07,0.29,0.32v1.829
					c-0.02,0.181-0.12,0.24-0.33,0.24v0.09h1.12V58.49c-0.14,0-0.35-0.021-0.35-0.2v-0.9h0.21l0.66,0.88l0.239,0.33h0.61V58.49
					C138.9,58.49,138.81,58.42,138.73,58.31z M137.31,57.25v-1.02c0.04-0.011,0.08-0.011,0.12-0.011c0.34,0,0.78,0.09,0.78,0.5
					C138.21,57.16,137.65,57.22,137.31,57.25z M138.73,58.31l-0.03-0.04l-0.7-0.93c0.34-0.05,0.64-0.28,0.64-0.64
					c0-0.48-0.46-0.7-0.89-0.7c-0.38,0-0.77,0.01-1.16,0.01v0.11c0.29-0.01,0.29,0.07,0.29,0.32v1.829
					c-0.02,0.181-0.12,0.24-0.33,0.24v0.09h1.12V58.49c-0.14,0-0.35-0.021-0.35-0.2v-0.9h0.21l0.66,0.88l0.239,0.33h0.61V58.49
					C138.9,58.49,138.81,58.42,138.73,58.31z M137.31,57.25v-1.02c0.04-0.011,0.08-0.011,0.12-0.011c0.34,0,0.78,0.09,0.78,0.5
					C138.21,57.16,137.65,57.22,137.31,57.25z M138.73,58.31l-0.03-0.04l-0.7-0.93c0.34-0.05,0.64-0.28,0.64-0.64
					c0-0.48-0.46-0.7-0.89-0.7c-0.38,0-0.77,0.01-1.16,0.01v0.11c0.29-0.01,0.29,0.07,0.29,0.32v1.829
					c-0.02,0.181-0.12,0.24-0.33,0.24v0.09h1.12V58.49c-0.14,0-0.35-0.021-0.35-0.2v-0.9h0.21l0.66,0.88l0.239,0.33h0.61V58.49
					C138.9,58.49,138.81,58.42,138.73,58.31z M137.31,57.25v-1.02c0.04-0.011,0.08-0.011,0.12-0.011c0.34,0,0.78,0.09,0.78,0.5
					C138.21,57.16,137.65,57.22,137.31,57.25z M138.73,58.31l-0.03-0.04l-0.7-0.93c0.34-0.05,0.64-0.28,0.64-0.64
					c0-0.48-0.46-0.7-0.89-0.7c-0.38,0-0.77,0.01-1.16,0.01v0.11c0.29-0.01,0.29,0.07,0.29,0.32v1.829
					c-0.02,0.181-0.12,0.24-0.33,0.24v0.09h1.12V58.49c-0.14,0-0.35-0.021-0.35-0.2v-0.9h0.21l0.66,0.88l0.239,0.33h0.61V58.49
					C138.9,58.49,138.81,58.42,138.73,58.31z M137.31,57.25v-1.02c0.04-0.011,0.08-0.011,0.12-0.011c0.34,0,0.78,0.09,0.78,0.5
					C138.21,57.16,137.65,57.22,137.31,57.25z M138.73,58.31l-0.03-0.04l-0.7-0.93c0.34-0.05,0.64-0.28,0.64-0.64
					c0-0.48-0.46-0.7-0.89-0.7c-0.38,0-0.77,0.01-1.16,0.01v0.11c0.29-0.01,0.29,0.07,0.29,0.32v1.829
					c-0.02,0.181-0.12,0.24-0.33,0.24v0.09h1.12V58.49c-0.14,0-0.35-0.021-0.35-0.2v-0.9h0.21l0.66,0.88l0.239,0.33h0.61V58.49
					C138.9,58.49,138.81,58.42,138.73,58.31z M137.31,57.25v-1.02c0.04-0.011,0.08-0.011,0.12-0.011c0.34,0,0.78,0.09,0.78,0.5
					C138.21,57.16,137.65,57.22,137.31,57.25z M138.73,58.31l-0.03-0.04l-0.7-0.93c0.34-0.05,0.64-0.28,0.64-0.64
					c0-0.48-0.46-0.7-0.89-0.7c-0.38,0-0.77,0.01-1.16,0.01v0.11c0.29-0.01,0.29,0.07,0.29,0.32v1.829
					c-0.02,0.181-0.12,0.24-0.33,0.24v0.09h1.12V58.49c-0.14,0-0.35-0.021-0.35-0.2v-0.9h0.21l0.66,0.88l0.239,0.33h0.61V58.49
					C138.9,58.49,138.81,58.42,138.73,58.31z M137.31,57.25v-1.02c0.04-0.011,0.08-0.011,0.12-0.011c0.34,0,0.78,0.09,0.78,0.5
					C138.21,57.16,137.65,57.22,137.31,57.25z M138.73,58.31l-0.03-0.04l-0.7-0.93c0.34-0.05,0.64-0.28,0.64-0.64
					c0-0.48-0.46-0.7-0.89-0.7c-0.38,0-0.77,0.01-1.16,0.01v0.11c0.29-0.01,0.29,0.07,0.29,0.32v1.829
					c-0.02,0.181-0.12,0.24-0.33,0.24v0.09h1.12V58.49c-0.14,0-0.35-0.021-0.35-0.2v-0.9h0.21l0.66,0.88l0.239,0.33h0.61V58.49
					C138.9,58.49,138.81,58.42,138.73,58.31z M137.31,57.25v-1.02c0.04-0.011,0.08-0.011,0.12-0.011c0.34,0,0.78,0.09,0.78,0.5
					C138.21,57.16,137.65,57.22,137.31,57.25z M137.73,55.12c-1.25,0-2.261,1-2.261,2.24c0,0.319,0.07,0.63,0.2,0.909h0.26
					c-0.149-0.279-0.229-0.59-0.229-0.92c0-1.1,0.91-2,2.03-2c1.13,0,2.039,0.9,2.039,2.011c0,0.33-0.079,0.64-0.22,0.909h0.25
					c0.13-0.279,0.2-0.59,0.2-0.909C140,56.12,138.98,55.12,137.73,55.12z M138.7,58.27l-0.7-0.93c0.34-0.05,0.64-0.28,0.64-0.64
					c0-0.48-0.46-0.7-0.89-0.7c-0.38,0-0.77,0.01-1.16,0.01v0.11c0.29-0.01,0.29,0.07,0.29,0.32v1.829
					c-0.02,0.181-0.12,0.24-0.33,0.24v0.09h1.12V58.49c-0.14,0-0.35-0.021-0.35-0.2v-0.9h0.21l0.66,0.88l0.239,0.33h0.61V58.49
					c-0.14,0-0.23-0.07-0.31-0.181L138.7,58.27z M137.31,57.25v-1.02c0.04-0.011,0.08-0.011,0.12-0.011c0.34,0,0.78,0.09,0.78,0.5
					C138.21,57.16,137.65,57.22,137.31,57.25z M138.73,58.31l-0.03-0.04l-0.7-0.93c0.34-0.05,0.64-0.28,0.64-0.64
					c0-0.48-0.46-0.7-0.89-0.7c-0.38,0-0.77,0.01-1.16,0.01v0.11c0.29-0.01,0.29,0.07,0.29,0.32v1.829
					c-0.02,0.181-0.12,0.24-0.33,0.24v0.09h1.12V58.49c-0.14,0-0.35-0.021-0.35-0.2v-0.9h0.21l0.66,0.88l0.239,0.33h0.61V58.49
					C138.9,58.49,138.81,58.42,138.73,58.31z M137.31,57.25v-1.02c0.04-0.011,0.08-0.011,0.12-0.011c0.34,0,0.78,0.09,0.78,0.5
					C138.21,57.16,137.65,57.22,137.31,57.25z M138.73,58.31l-0.03-0.04l-0.7-0.93c0.34-0.05,0.64-0.28,0.64-0.64
					c0-0.48-0.46-0.7-0.89-0.7c-0.38,0-0.77,0.01-1.16,0.01v0.11c0.29-0.01,0.29,0.07,0.29,0.32v1.829
					c-0.02,0.181-0.12,0.24-0.33,0.24v0.09h1.12V58.49c-0.14,0-0.35-0.021-0.35-0.2v-0.9h0.21l0.66,0.88l0.239,0.33h0.61V58.49
					C138.9,58.49,138.81,58.42,138.73,58.31z M137.31,57.25v-1.02c0.04-0.011,0.08-0.011,0.12-0.011c0.34,0,0.78,0.09,0.78,0.5
					C138.21,57.16,137.65,57.22,137.31,57.25z M138.73,58.31l-0.03-0.04l-0.7-0.93c0.34-0.05,0.64-0.28,0.64-0.64
					c0-0.48-0.46-0.7-0.89-0.7c-0.38,0-0.77,0.01-1.16,0.01v0.11c0.29-0.01,0.29,0.07,0.29,0.32v1.829
					c-0.02,0.181-0.12,0.24-0.33,0.24v0.09h1.12V58.49c-0.14,0-0.35-0.021-0.35-0.2v-0.9h0.21l0.66,0.88l0.239,0.33h0.61V58.49
					C138.9,58.49,138.81,58.42,138.73,58.31z M137.31,57.25v-1.02c0.04-0.011,0.08-0.011,0.12-0.011c0.34,0,0.78,0.09,0.78,0.5
					C138.21,57.16,137.65,57.22,137.31,57.25z M138.73,58.31l-0.03-0.04l-0.7-0.93c0.34-0.05,0.64-0.28,0.64-0.64
					c0-0.48-0.46-0.7-0.89-0.7c-0.38,0-0.77,0.01-1.16,0.01v0.11c0.29-0.01,0.29,0.07,0.29,0.32v1.829
					c-0.02,0.181-0.12,0.24-0.33,0.24v0.09h1.12V58.49c-0.14,0-0.35-0.021-0.35-0.2v-0.9h0.21l0.66,0.88l0.239,0.33h0.61V58.49
					C138.9,58.49,138.81,58.42,138.73,58.31z M137.31,57.25v-1.02c0.04-0.011,0.08-0.011,0.12-0.011c0.34,0,0.78,0.09,0.78,0.5
					C138.21,57.16,137.65,57.22,137.31,57.25z M138.73,58.31l-0.03-0.04l-0.7-0.93c0.34-0.05,0.64-0.28,0.64-0.64
					c0-0.48-0.46-0.7-0.89-0.7c-0.38,0-0.77,0.01-1.16,0.01v0.11c0.29-0.01,0.29,0.07,0.29,0.32v1.829
					c-0.02,0.181-0.12,0.24-0.33,0.24v0.09h1.12V58.49c-0.14,0-0.35-0.021-0.35-0.2v-0.9h0.21l0.66,0.88l0.239,0.33h0.61V58.49
					C138.9,58.49,138.81,58.42,138.73,58.31z M137.31,57.25v-1.02c0.04-0.011,0.08-0.011,0.12-0.011c0.34,0,0.78,0.09,0.78,0.5
					C138.21,57.16,137.65,57.22,137.31,57.25z M138.73,58.31l-0.03-0.04l-0.7-0.93c0.34-0.05,0.64-0.28,0.64-0.64
					c0-0.48-0.46-0.7-0.89-0.7c-0.38,0-0.77,0.01-1.16,0.01v0.11c0.29-0.01,0.29,0.07,0.29,0.32v1.829
					c-0.02,0.181-0.12,0.24-0.33,0.24v0.09h1.12V58.49c-0.14,0-0.35-0.021-0.35-0.2v-0.9h0.21l0.66,0.88l0.239,0.33h0.61V58.49
					C138.9,58.49,138.81,58.42,138.73,58.31z M137.31,57.25v-1.02c0.04-0.011,0.08-0.011,0.12-0.011c0.34,0,0.78,0.09,0.78,0.5
					C138.21,57.16,137.65,57.22,137.31,57.25z M138.73,58.31l-0.03-0.04l-0.7-0.93c0.34-0.05,0.64-0.28,0.64-0.64
					c0-0.48-0.46-0.7-0.89-0.7c-0.38,0-0.77,0.01-1.16,0.01v0.11c0.29-0.01,0.29,0.07,0.29,0.32v1.829
					c-0.02,0.181-0.12,0.24-0.33,0.24v0.09h1.12V58.49c-0.14,0-0.35-0.021-0.35-0.2v-0.9h0.21l0.66,0.88l0.239,0.33h0.61V58.49
					C138.9,58.49,138.81,58.42,138.73,58.31z M137.31,57.25v-1.02c0.04-0.011,0.08-0.011,0.12-0.011c0.34,0,0.78,0.09,0.78,0.5
					C138.21,57.16,137.65,57.22,137.31,57.25z M138.73,58.31l-0.03-0.04l-0.7-0.93c0.34-0.05,0.64-0.28,0.64-0.64
					c0-0.48-0.46-0.7-0.89-0.7c-0.38,0-0.77,0.01-1.16,0.01v0.11c0.29-0.01,0.29,0.07,0.29,0.32v1.829
					c-0.02,0.181-0.12,0.24-0.33,0.24v0.09h1.12V58.49c-0.14,0-0.35-0.021-0.35-0.2v-0.9h0.21l0.66,0.88l0.239,0.33h0.61V58.49
					C138.9,58.49,138.81,58.42,138.73,58.31z M137.31,57.25v-1.02c0.04-0.011,0.08-0.011,0.12-0.011c0.34,0,0.78,0.09,0.78,0.5
					C138.21,57.16,137.65,57.22,137.31,57.25z"/>
				<path fill="#004288" d="M133.62,48.7V59.6h-5.3V49.2c0-0.181,0-0.34-0.011-0.5c-0.05-1.23-0.319-1.95-0.77-2.57
					c-0.32-0.46-1.14-0.79-1.62-0.79c-1.07,0-2.16,0.58-3.07,1.33V59.6h-5.239V42.66l5.229-0.851v2.301
					c2.44-1.54,3.66-2.011,5.78-2.011C131.48,42.1,133.62,44.11,133.62,48.7z"/>
				<path fill="#004288" d="M116.36,59.59h-5.16c-1.08,0-1.53-0.33-1.65-1.32c-0.02-0.189-0.03-0.399-0.03-0.64v-6.56h-0.409
					c-0.61,0-4.08,0.77-4.08,4.09c0,0.53,0.22,1.899,1.029,2.17c0.29,0.1,0.86,0.12,0.99,0.12c0.71,0,1.41-0.22,2.16-0.45
					c-0.07,0.29-0.14,0.79-0.2,1.27c-0.05,0.391-0.1,0.771-0.149,1.021c-0.98,0.32-1.811,0.66-2.841,0.76
					c-0.6,0.05-0.92,0.05-1.039,0.05c-1.73,0-3.471-0.56-4.49-1.83c-0.54-0.68-0.87-1.579-0.87-2.71c0-5.75,9.91-6.619,9.91-6.619
					v-1.49c0-0.59-0.15-2.96-3.16-2.96c-1.65,0-4.55,0.649-5.38,0.99l0.3-2.28c0.61-0.22,3.37-1.04,4.33-1.16
					c4.82-0.58,7.29,1.229,8.08,2.26c0.7,0.91,1.14,2.44,1.14,3.561v9.42c0,0.34,0.07,0.68,0.2,0.989
					C115.31,58.92,115.8,59.46,116.36,59.59z"/>
				<path fill="#004288" d="M98.42,50.22c0,3.25-1.15,6.25-3.36,8.05c-1.159,0.95-2.609,1.561-4.35,1.7
					c-0.6,0.04-0.93,0.05-1.06,0.05c-0.75,0-1.431-0.149-2.45-0.479c-0.08-0.24-0.19-0.79-0.29-1.271
					c-0.09-0.479-0.17-0.909-0.17-0.909c0.68,0.29,1.37,0.51,2.1,0.51c2.53,0,4.021-2.271,4.021-6.93c0-0.54-0.061-1.37-0.24-2.24
					c-0.26-1.351-0.79-2.79-1.74-3.36c-0.42-0.24-1.1-0.53-1.53-0.53c-0.899,0-2.05,0.341-2.96,1.011V58.27l0.011,4.79v4.631H81.14
					V42.62l5.29-0.8v1.6c1.32-0.75,2.931-1.29,4.28-1.4c0.6-0.06,0.86-0.06,0.99-0.06c1.569,0,3.29,0.521,4.83,2.21
					c0.29,0.32,0.51,0.74,0.689,1.1c0.58,1.131,0.99,2.28,1.12,3.431c0.01,0.16,0.03,0.31,0.03,0.47
					C98.4,49.82,98.42,50.09,98.42,50.22z"/>
				<path fill="#004288" d="M78.97,54.31c0,1.2-0.34,2.771-1.68,3.96c-1.13,1.011-2.99,1.75-5.97,1.75c-2.64,0-5.05-0.92-5.21-0.97
					c-0.08-0.26-0.15-0.52-0.22-0.78c-0.13-0.539-0.25-1.1-0.41-1.659c0.88,0.3,2.74,1.189,5.1,1.189c2.06,0,3.439-1.08,3.439-2.37
					c0-0.62-0.38-1.38-1.21-1.859C70.7,52.35,68.37,51.92,66.4,49.77c-0.27-0.3-0.46-0.68-0.6-1.069c-0.16-0.51-0.23-1.03-0.23-1.42
					c0-3.04,2.81-5.28,7.1-5.28c2.48,0,4.311,0.97,4.311,0.97s0.479,1.7,0.67,2.521c-1.61-0.78-2.98-1.25-4.471-1.25
					c-0.84,0-2.7,0.279-2.7,1.939c0,1.08,1.44,1.74,3.14,2.521C76.04,49.81,78.97,51.17,78.97,54.31z"/>
				<path fill="#004288" d="M62.63,58.27c-3.32-1.779-9.55-0.8-9.55-2.119c0-0.36,0.49-1.24,0.64-1.521
					c0.56,0.101,0.65,0.2,1.96,0.2c5.86,0,7.61-4.15,7.61-6.061V48.7c-0.01-1.51-0.41-2.67-1.77-4.3l2.32,0.35v-2.68h-8.41
					c-2.84-0.011-7.31,2.21-7.31,6.3c0,0.11,0,0.22,0.01,0.33c0.07,1.91,0.85,3.52,3.48,5.16c-1.38,1.149-2.68,2.62-2.68,3.939
					c0,0.16,0.02,0.32,0.05,0.47c0.26,1.23,1.49,1.94,1.94,2.08c2.6,0.811,5.24,0.261,7.88,1.49c0.62,0.28,1.13,0.74,1.24,1.22
					c0.01,0.061,0.01,0.11,0.01,0.171c0,1.77-3.23,2.369-4.75,2.369c-0.13,0-0.33-0.02-0.88-0.05c-1.77-0.09-3.54-0.55-5.33-1.09
					c0.25,0.83,0.45,1.62,0.71,2.41c1.5,0.49,2.62,0.75,4.51,0.93l1.77,0.05c2.95,0,7.44-1.04,8.39-4.79
					c0.12-0.47,0.19-0.97,0.19-1.52C64.66,59.93,63.84,58.92,62.63,58.27z M52.87,48.57c0-1.29,0.28-2.24,0.57-2.95
					c0.47-1.101,1.41-1.61,2.27-1.61c2.29,0,2.83,3.57,2.83,4.54c0,0.05,0,0.101-0.01,0.15c-0.03,1-0.44,2.649-0.98,3.38
					c-0.59,0.79-1.1,0.86-1.77,0.86c-2.25,0-2.87-2.91-2.9-4.24C52.87,48.65,52.87,48.61,52.87,48.57z"/>
				<path fill="#004288" d="M46.13,48.7V59.6h-5.3V49.2c0-0.16-0.01-0.33-0.02-0.5c-0.08-0.931-0.34-1.98-0.76-2.57
					c-0.32-0.46-1.15-0.79-1.63-0.79c-1.07,0-2.16,0.58-3.06,1.33V59.6h-5.25V42.66l5.24-0.851v2.301
					c2.43-1.54,3.66-2.011,5.78-2.011C43.99,42.1,46.12,44.11,46.13,48.7z"/>
				<path fill="#004288" d="M27.28,36.82c0,1.189-1.01,2.89-2.98,2.89c-1.62,0-2.98-1.21-2.98-2.84c0-1.61,1.12-2.95,3.03-2.95
					C26.08,33.92,27.28,35.42,27.28,36.82z"/>
				<polygon fill="#004288" points="26.92,41.8 26.92,59.59 21.68,59.59 21.68,42.65 				"/>
				<rect y="35.83" fill="#004288" width="5.16" height="23.76"/>
				<polygon fill="#004288" points="20.14,59.6 13.54,59.6 12.64,58.27 6.14,48.7 5.17,47.27 14.73,35.83 19.42,35.83 10.42,46.37 
					12.13,48.7 19.17,58.27 				"/>
			</g>
		</g>
	</g>
</g>
</svg>
