<?xml version="1.0" encoding="UTF-8"?> <svg xmlns="http://www.w3.org/2000/svg" width="257" height="67" viewBox="0 0 257 67"><g id="LDDK_Pamata_logo_LV_RGB" transform="translate(-35.43 -34.72)"><g id="Group_3354" data-name="Group 3354" transform="translate(84.65 34.72)"><path id="Path_12665" data-name="Path 12665" d="M113.3,44.043a9.372,9.372,0,0,0-9.42-9.323v48.7H139.5V74.7H113.3Z" transform="translate(-103.88 -34.72)" fill="#0a2240"></path><path id="Path_12666" data-name="Path 12666" d="M204.277,41.538a23.683,23.683,0,0,0-8.082-5.046,28.857,28.857,0,0,0-10.3-1.772H165.44v48.7h20.177a29.243,29.243,0,0,0,10.4-1.808,24.3,24.3,0,0,0,8.226-5.074,22.937,22.937,0,0,0,5.343-7.722,26.118,26.118,0,0,0,0-19.551A23.234,23.234,0,0,0,204.277,41.538Zm-3.509,24.248A16.054,16.054,0,0,1,197.4,71a15.322,15.322,0,0,1-5.026,3.409,15.905,15.905,0,0,1-6.256,1.217H174.867V42.513h10.822a17.169,17.169,0,0,1,6.464,1.181,14.557,14.557,0,0,1,5.134,3.445,16.912,16.912,0,0,1,3.444,5.288A17.269,17.269,0,0,1,202,59.139,17.491,17.491,0,0,1,200.768,65.786Z" transform="translate(-121.175 -34.72)" fill="#0a2240"></path><path id="Path_12667" data-name="Path 12667" d="M279.847,41.538a23.683,23.683,0,0,0-8.082-5.046,28.857,28.857,0,0,0-10.3-1.772H241.01v48.7h20.177a29.244,29.244,0,0,0,10.4-1.808,24.3,24.3,0,0,0,8.226-5.074,22.937,22.937,0,0,0,5.343-7.722,26.117,26.117,0,0,0,0-19.551A23.235,23.235,0,0,0,279.847,41.538ZM276.33,65.786A15.936,15.936,0,0,1,272.958,71a15.322,15.322,0,0,1-5.026,3.409,15.9,15.9,0,0,1-6.256,1.217H250.43V42.513h10.822a17.169,17.169,0,0,1,6.464,1.181,14.557,14.557,0,0,1,5.134,3.445,16.912,16.912,0,0,1,3.444,5.288,17.269,17.269,0,0,1,1.266,6.711A17.492,17.492,0,0,1,276.33,65.786Z" transform="translate(-142.405 -34.72)" fill="#0a2240"></path><path id="Path_12668" data-name="Path 12668" d="M360.512,83.422,340.357,55.345,359.311,34.72H348.2L325.99,59.7V44.043a9.376,9.376,0,0,0-9.42-9.323v48.7h9.42V70.967l7.859-8.548,15.338,21Z" transform="translate(-163.633 -34.72)" fill="#0a2240"></path></g><g id="Group_3355" data-name="Group 3355" transform="translate(35.444 91.977)"><path id="Path_12669" data-name="Path 12669" d="M36.989,117.49H35.45v7.978h5.019v-1.3h-3.48Z" transform="translate(-35.45 -115.839)" fill="#0a2240"></path><path id="Path_12670" data-name="Path 12670" d="M46.575,117.49l-3.545,7.978h1.611l.726-1.744h3.9L50,125.468h1.647l-3.487-7.978Zm-.69,4.989,1.431-3.452,1.438,3.452Z" transform="translate(-37.58 -115.839)" fill="#0a2240"></path><path id="Path_12671" data-name="Path 12671" d="M54.24,118.778h2.51v6.69H58.3v-6.69h2.51V117.49H54.24Z" transform="translate(-40.729 -115.839)" fill="#0a2240"></path><path id="Path_12672" data-name="Path 12672" d="M67.827,123.86l-2.373-6.37H63.8l3.185,7.978h1.6l3.236-7.978H70.214Z" transform="translate(-43.415 -115.839)" fill="#0a2240"></path><rect id="Rectangle_2153" data-name="Rectangle 2153" width="1.546" height="7.978" transform="translate(29.597 1.651)" fill="#0a2240"></rect><path id="Path_12673" data-name="Path 12673" d="M81.063,118.778h2.776v4.171a1.284,1.284,0,0,1-.288.9,1.023,1.023,0,0,1-.784.313,1.9,1.9,0,0,1-.848-.228,3.04,3.04,0,0,1-.863-.662l-.726,1.1a3.545,3.545,0,0,0,1.1.861,3.08,3.08,0,0,0,1.388.313,2.6,2.6,0,0,0,1.891-.669,2.5,2.5,0,0,0,.69-1.886V117.49H81.071v1.288Z" transform="translate(-48.058 -115.839)" fill="#0a2240"></path><path id="Path_12674" data-name="Path 12674" d="M91.965,117.49l-3.545,7.978h1.611l.726-1.744h3.9l.726,1.744h1.647l-3.487-7.978Zm-.69,4.989,1.431-3.452,1.438,3.452Z" transform="translate(-50.331 -115.839)" fill="#0a2240"></path><path id="Path_12675" data-name="Path 12675" d="M106.572,121.458a3.506,3.506,0,0,0-.848-.427c-.309-.107-.611-.214-.92-.3s-.59-.185-.848-.285a1.783,1.783,0,0,1-.618-.377.778.778,0,0,1-.237-.591.665.665,0,0,1,.331-.6,1.653,1.653,0,0,1,.87-.206,4.463,4.463,0,0,1,.712.071,4.884,4.884,0,0,1,.834.242,5.216,5.216,0,0,1,.87.434l.618-1.253a5.052,5.052,0,0,0-1.345-.6,5.58,5.58,0,0,0-1.575-.228,4.128,4.128,0,0,0-1.582.278,2.488,2.488,0,0,0-1.057.79,1.955,1.955,0,0,0-.381,1.2,1.933,1.933,0,0,0,.237,1.011,2.082,2.082,0,0,0,.618.655,3.761,3.761,0,0,0,.849.42c.309.107.618.206.928.285a7.418,7.418,0,0,1,.848.27,1.822,1.822,0,0,1,.618.384.879.879,0,0,1-.122,1.31,1.815,1.815,0,0,1-1.021.249,3.326,3.326,0,0,1-.913-.142,4.73,4.73,0,0,1-.971-.413,4.907,4.907,0,0,1-.9-.641l-.647,1.245a5.389,5.389,0,0,0,.985.662,5.472,5.472,0,0,0,1.165.448,4.7,4.7,0,0,0,1.258.164,4.094,4.094,0,0,0,1.582-.285,2.58,2.58,0,0,0,1.1-.811,2.025,2.025,0,0,0,.4-1.267,2.082,2.082,0,0,0-.23-1.025A1.932,1.932,0,0,0,106.572,121.458Z" transform="translate(-53.843 -115.793)" fill="#0a2240"></path><path id="Path_12676" data-name="Path 12676" d="M123.154,118.607a3.877,3.877,0,0,0-1.323-.826,4.752,4.752,0,0,0-1.69-.292H116.79v7.978h3.3a4.763,4.763,0,0,0,1.7-.3,3.96,3.96,0,0,0,1.345-.833,3.756,3.756,0,0,0,.877-1.267,3.993,3.993,0,0,0,.309-1.594,4.063,4.063,0,0,0-.309-1.608A3.659,3.659,0,0,0,123.154,118.607Zm-.575,3.971a2.662,2.662,0,0,1-.554.854,2.411,2.411,0,0,1-.827.555,2.689,2.689,0,0,1-1.021.2h-1.841v-5.423h1.776a2.846,2.846,0,0,1,1.057.192,2.419,2.419,0,0,1,.841.562,2.744,2.744,0,0,1,.561.868,3.033,3.033,0,0,1,.007,2.192Z" transform="translate(-58.301 -115.839)" fill="#0a2240"></path><path id="Path_12677" data-name="Path 12677" d="M131.275,117.49l-3.545,7.978h1.611l.726-1.744h3.9l.726,1.744h1.647l-3.487-7.978Zm-.7,4.989,1.431-3.452,1.438,3.452Z" transform="translate(-61.375 -115.839)" fill="#0a2240"></path><path id="Path_12678" data-name="Path 12678" d="M147.1,122.33a2.659,2.659,0,0,0,.856-2.107,2.484,2.484,0,0,0-.856-2.014,3.656,3.656,0,0,0-2.416-.719H141.33v7.978h1.546v-2.384h1.812c.093,0,.18-.014.273-.014l1.409,2.4h1.747l-1.79-2.676A2.731,2.731,0,0,0,147.1,122.33Zm-4.235-3.566h1.819a2.115,2.115,0,0,1,1.337.37,1.337,1.337,0,0,1,.475,1.125,1.421,1.421,0,0,1-.475,1.174,2.073,2.073,0,0,1-1.337.384h-1.819Z" transform="translate(-65.196 -115.839)" fill="#0a2240"></path><path id="Path_12679" data-name="Path 12679" d="M158.084,121.248a1.722,1.722,0,0,0,1.028-.626,1.781,1.781,0,0,0,.374-1.139,1.7,1.7,0,0,0-.331-1.068,2.052,2.052,0,0,0-.956-.683,4.2,4.2,0,0,0-1.488-.242H153.13v7.978h3.682a4.226,4.226,0,0,0,1.582-.263,2.344,2.344,0,0,0,1.028-.754,1.928,1.928,0,0,0,.367-1.181,1.95,1.95,0,0,0-.46-1.331A2.091,2.091,0,0,0,158.084,121.248Zm-3.408-2.491h1.956a1.471,1.471,0,0,1,.935.249.882.882,0,0,1,.338.726.923.923,0,0,1-.338.762,1.472,1.472,0,0,1-.935.27h-1.956Zm3.114,5.16a1.886,1.886,0,0,1-1.151.285h-1.956V122h1.949a1.988,1.988,0,0,1,1.151.292.921.921,0,0,1,.417.79A.972.972,0,0,1,157.79,123.917Z" transform="translate(-68.511 -115.839)" fill="#0a2240"></path><path id="Path_12680" data-name="Path 12680" d="M166.885,117.49l-3.545,7.978h1.611l.726-1.744h3.9l.726,1.744h1.647l-3.487-7.978Zm-.7,4.989,1.431-3.452,1.438,3.452Z" transform="translate(-71.379 -115.839)" fill="#0a2240"></path><path id="Path_12681" data-name="Path 12681" d="M187.854,118.607a3.877,3.877,0,0,0-1.323-.826,4.752,4.752,0,0,0-1.69-.292H181.49v7.978h3.3a4.763,4.763,0,0,0,1.7-.3,3.96,3.96,0,0,0,1.345-.833,3.757,3.757,0,0,0,.877-1.267,3.993,3.993,0,0,0,.309-1.594,4.063,4.063,0,0,0-.309-1.608A3.759,3.759,0,0,0,187.854,118.607Zm-.575,3.971a2.661,2.661,0,0,1-.554.854,2.411,2.411,0,0,1-.827.555,2.689,2.689,0,0,1-1.021.2h-1.841v-5.423h1.776a2.846,2.846,0,0,1,1.057.192,2.42,2.42,0,0,1,.841.562,2.744,2.744,0,0,1,.561.868,2.838,2.838,0,0,1,.209,1.1A2.977,2.977,0,0,1,187.278,122.579Z" transform="translate(-76.478 -115.839)" fill="#0a2240"></path><path id="Path_12682" data-name="Path 12682" d="M195.649,122.095h3.919v-1.267h-3.919v-2.064h4.365V117.49h-5.9v7.978h6.04v-1.281h-4.5Z" transform="translate(-80.024 -115.839)" fill="#0a2240"></path><path id="Path_12683" data-name="Path 12683" d="M207.617,123.86l-2.373-6.37H203.59l3.185,7.978h1.6l3.236-7.978H210Z" transform="translate(-82.687 -115.839)" fill="#0a2240"></path><rect id="Rectangle_2154" data-name="Rectangle 2154" width="3.653" height="0.89" transform="translate(131.329 0)" fill="#0a2240"></rect><path id="Path_12684" data-name="Path 12684" d="M217.936,122.095h3.912v-1.267h-3.912v-2.064H222.3V117.49H216.39v7.978h6.047v-1.281h-4.5Z" transform="translate(-86.283 -115.839)" fill="#0a2240"></path><path id="Path_12685" data-name="Path 12685" d="M226.533,118.778h2.776v4.171a1.284,1.284,0,0,1-.288.9,1.023,1.023,0,0,1-.784.313,1.9,1.9,0,0,1-.848-.228,3.041,3.041,0,0,1-.863-.662l-.726,1.1a3.544,3.544,0,0,0,1.1.861,3.08,3.08,0,0,0,1.388.313,2.6,2.6,0,0,0,1.891-.669,2.5,2.5,0,0,0,.69-1.886V117.49h-4.329v1.288Z" transform="translate(-88.927 -115.839)" fill="#0a2240"></path><path id="Path_12686" data-name="Path 12686" d="M240.881,122.19a2.147,2.147,0,0,1-.532,1.544,1.879,1.879,0,0,1-1.431.555,1.939,1.939,0,0,1-1.452-.555,2.113,2.113,0,0,1-.539-1.537v-4.7H235.38v4.7A3.678,3.678,0,0,0,235.8,124a2.835,2.835,0,0,0,1.222,1.167,4.112,4.112,0,0,0,1.891.413,3.954,3.954,0,0,0,1.87-.413A2.84,2.84,0,0,0,242,124.005a3.676,3.676,0,0,0,.417-1.808v-4.7h-1.546v4.69Z" transform="translate(-91.618 -115.842)" fill="#0a2240"></path><path id="Path_12687" data-name="Path 12687" d="M259.514,117.49h-1.819l-3.638,4.092V117.49H252.51v7.978h1.546v-2.043l1.287-1.4,2.51,3.445h1.855l-3.3-4.6Z" transform="translate(-96.43 -115.839)" fill="#0a2240"></path><path id="Path_12688" data-name="Path 12688" d="M270.5,118.534a4.17,4.17,0,0,0-1.366-.868,4.818,4.818,0,0,0-3.38,0,4.3,4.3,0,0,0-1.366.861,3.834,3.834,0,0,0-.913,1.3,3.976,3.976,0,0,0-.331,1.608,3.915,3.915,0,0,0,.331,1.616,3.965,3.965,0,0,0,.913,1.3,4.247,4.247,0,0,0,1.366.868,4.716,4.716,0,0,0,3.38,0,4.17,4.17,0,0,0,1.366-.868,3.976,3.976,0,0,0,.906-1.31,4.026,4.026,0,0,0,.331-1.608,3.827,3.827,0,0,0-.331-1.6A4.1,4.1,0,0,0,270.5,118.534Zm-.554,3.993a3.117,3.117,0,0,1-.582.9,2.666,2.666,0,0,1-.856.6,2.577,2.577,0,0,1-1.043.214,2.636,2.636,0,0,1-1.05-.214,2.837,2.837,0,0,1-1.474-1.5,2.8,2.8,0,0,1-.216-1.1,2.763,2.763,0,0,1,.216-1.1,2.844,2.844,0,0,1,.59-.883,2.715,2.715,0,0,1,.877-.591,2.645,2.645,0,0,1,1.057-.214,2.577,2.577,0,0,1,1.043.214,2.738,2.738,0,0,1,.856.591,2.957,2.957,0,0,1,.582.883,2.737,2.737,0,0,1,.216,1.1A2.9,2.9,0,0,1,269.942,122.527Z" transform="translate(-99.417 -115.801)" fill="#0a2240"></path><path id="Path_12689" data-name="Path 12689" d="M282.836,123.077l-4.156-5.587h-1.46v7.978h1.5v-5.58l4.135,5.58h1.474V117.49h-1.5Z" transform="translate(-103.372 -115.839)" fill="#0a2240"></path><path id="Path_12690" data-name="Path 12690" d="M290.11,125.468h1.539v-3.217H295.3v-1.26h-3.653v-2.228h4.02V117.49H290.11Z" transform="translate(-106.994 -115.839)" fill="#0a2240"></path><path id="Path_12691" data-name="Path 12691" d="M301.226,122.095h3.912v-1.267h-3.912v-2.064h4.357V117.49h-5.9v7.978h6.047v-1.281h-4.5Z" transform="translate(-109.682 -115.839)" fill="#0a2240"></path><path id="Path_12692" data-name="Path 12692" d="M316.864,118.607a3.877,3.877,0,0,0-1.323-.826,4.753,4.753,0,0,0-1.69-.292H310.5v7.978h3.3a4.763,4.763,0,0,0,1.7-.3,3.959,3.959,0,0,0,1.345-.833,3.757,3.757,0,0,0,.877-1.267,3.994,3.994,0,0,0,.309-1.594,4.064,4.064,0,0,0-.309-1.608A3.659,3.659,0,0,0,316.864,118.607Zm-.575,3.971a2.663,2.663,0,0,1-.554.854,2.411,2.411,0,0,1-.827.555,2.69,2.69,0,0,1-1.021.2h-1.841v-5.423h1.776a2.846,2.846,0,0,1,1.057.192,2.419,2.419,0,0,1,.841.562,2.744,2.744,0,0,1,.561.868,2.838,2.838,0,0,1,.209,1.1A2.979,2.979,0,0,1,316.288,122.579Z" transform="translate(-112.722 -115.839)" fill="#0a2240"></path><path id="Path_12693" data-name="Path 12693" d="M324.659,122.095h3.919v-1.267h-3.919v-2.064h4.365V117.49h-5.9v7.978h6.04v-1.281h-4.5Z" transform="translate(-116.267 -115.839)" fill="#0a2240"></path><path id="Path_12694" data-name="Path 12694" d="M339.724,122.33a2.659,2.659,0,0,0,.856-2.107,2.484,2.484,0,0,0-.856-2.014,3.656,3.656,0,0,0-2.416-.719H333.95v7.978H335.5v-2.384h1.819c.094,0,.18-.014.273-.014l1.409,2.4h1.747l-1.79-2.676A2.8,2.8,0,0,0,339.724,122.33Zm-4.235-3.566h1.819a2.116,2.116,0,0,1,1.337.37,1.338,1.338,0,0,1,.475,1.125,1.422,1.422,0,0,1-.475,1.174,2.074,2.074,0,0,1-1.337.384h-1.819Z" transform="translate(-119.31 -115.839)" fill="#0a2240"></path><path id="Path_12695" data-name="Path 12695" d="M347.915,117.49l-3.545,7.978h1.611l.726-1.744h3.9l.726,1.744h1.647L349.5,117.49Zm-.7,4.989,1.431-3.452,1.438,3.452Z" transform="translate(-122.237 -115.839)" fill="#0a2240"></path><rect id="Rectangle_2155" data-name="Rectangle 2155" width="3.653" height="0.89" transform="translate(224.613 0)" fill="#0a2240"></rect><path id="Path_12696" data-name="Path 12696" d="M362.233,123.932a2.822,2.822,0,0,1-1.165.256,2.586,2.586,0,0,1-1.05-.214,2.856,2.856,0,0,1-.863-.591,2.633,2.633,0,0,1-.582-.882,2.929,2.929,0,0,1,0-2.171,2.706,2.706,0,0,1,.582-.883,2.621,2.621,0,0,1,.863-.591,2.648,2.648,0,0,1,2.222.064,3.211,3.211,0,0,1,1.014.762l.9-1.046a3.85,3.85,0,0,0-.9-.676,5.136,5.136,0,0,0-1.064-.434,4.531,4.531,0,0,0-2.819.149,4.141,4.141,0,0,0-1.352.868,3.887,3.887,0,0,0-.906,1.3,3.939,3.939,0,0,0-.324,1.6,4.066,4.066,0,0,0,1.215,2.918,4.119,4.119,0,0,0,1.338.868,4.381,4.381,0,0,0,1.654.313,4.29,4.29,0,0,0,1.158-.164,4.505,4.505,0,0,0,1.093-.477,4.226,4.226,0,0,0,.927-.719l-.913-.947A3.49,3.49,0,0,1,362.233,123.932Z" transform="translate(-125.727 -115.804)" fill="#0a2240"></path><rect id="Rectangle_2156" data-name="Rectangle 2156" width="1.546" height="7.978" transform="translate(239.879 1.651)" fill="#0a2240"></rect><path id="Path_12697" data-name="Path 12697" d="M373.5,118.778h2.776v4.171a1.284,1.284,0,0,1-.288.9,1.023,1.023,0,0,1-.784.313,1.9,1.9,0,0,1-.848-.228,3.041,3.041,0,0,1-.863-.662l-.726,1.1a3.545,3.545,0,0,0,1.1.861,3.08,3.08,0,0,0,1.388.313,2.6,2.6,0,0,0,1.891-.669,2.5,2.5,0,0,0,.69-1.886V117.49h-4.329v1.288Z" transform="translate(-130.216 -115.839)" fill="#0a2240"></path><path id="Path_12698" data-name="Path 12698" d="M387.831,125.468h1.647l-3.487-7.978h-1.575l-3.545,7.978h1.611l.726-1.744h3.9Zm-4.113-2.989,1.431-3.452,1.438,3.452Z" transform="translate(-132.492 -115.839)" fill="#0a2240"></path></g><path id="Path_12699" data-name="Path 12699" d="M81.87,46.924H69.56V34.74h0A12.243,12.243,0,0,1,81.87,46.924Z" transform="translate(-9.588 -0.006)" fill="#9d2235"></path><path id="Path_12700" data-name="Path 12700" d="M69.56,81.164h0V68.98H81.87A12.253,12.253,0,0,1,69.56,81.164Z" transform="translate(-9.588 -9.877)" fill="#a1d6ca"></path><g id="Group_3356" data-name="Group 3356" transform="translate(47.661 46.919)"><rect id="Rectangle_2157" data-name="Rectangle 2157" width="12.31" height="12.184" transform="translate(0 0)" fill="#0a2240"></rect></g><g id="Group_3357" data-name="Group 3357" transform="translate(35.43 71.273)"><path id="Path_12701" data-name="Path 12701" d="M47.74,98.264H35.43V86.08h0A12.253,12.253,0,0,1,47.74,98.264Z" transform="translate(-35.43 -86.08)" fill="#87a9e2"></path></g></g></svg> 