<?xml version="1.0" encoding="UTF-8"?><svg id="Layer_1" xmlns="http://www.w3.org/2000/svg" viewBox="0 0 151.03 120.12"><path d="m45.46,108.74c.17-2.17.46-4.29.85-6.35h-.06c-.37,2.1-.64,4.22-.8,6.35Z" style="fill:none;"/><path d="m57.6,53.01H0v49.37h44.29c-.64-18.51,4.5-35.16,13.31-49.37Z" style="fill:#ed1c24;"/><path d="m45.46,108.74s0,.07,0,.1c-.06.84-.11,1.68-.14,2.54.03-.85.07-1.7.14-2.54,0-.03,0-.07,0-.1.16-2.14.43-4.25.8-6.35h-1.97c.2,5.74.94,11.65,2.32,17.73-.68-6.17,0-12.11,1.66-17.73h-1.96c-.39,2.07-.69,4.19-.85,6.35Z" style="fill:#7bd3f7;"/><path d="m106.48,53.01h44.55v-3.9c-12.06-1.7-29.94.42-44.55,3.9Z" style="fill:none;"/><path d="m66.06,53.01h3.4c25.03-24.75,62.75-35.74,81.57-34.07v-4.5c-28.19-.78-63.06,12.71-84.97,38.56Z" style="fill:none;"/><path d="m79.47,53.01h7.17c23.39-13.21,50.63-18.62,64.39-16.93v-4.49c-27.39-.68-52.62,7.68-71.57,21.42Z" style="fill:none;"/><path d="m45.33,101.25c2.07-19.7,11.48-35.72,24.13-48.24h-3.4c-11.04,13.02-18.79,29.18-20.73,48.24Z" style="fill:#ed1c24;"/><path d="m46.26,102.39h.06c4.2-22.1,20.93-38.42,40.33-49.37h-7.17c-17.64,12.78-29.82,30.23-33.21,49.37Z" style="fill:#ed1c24;"/><path d="m138.98,53.01h-32.5c-6.04,1.44-11.52,3.1-15.81,4.83-15.04,6.18-36.03,22.96-42.41,44.54h102.76v-49.37h-12.05Z" style="fill:#ed1c24;"/><path d="m151.03,14.45V0c-32.84.03-72.98,19.99-93.43,53.01h8.46c21.91-25.85,56.78-39.34,84.97-38.56Z" style="fill:#7bd3f7;"/><path d="m86.64,53.01h19.84c14.61-3.48,32.49-5.6,44.55-3.9v-13.03c-13.76-1.69-41,3.71-64.39,16.93Z" style="fill:#7bd3f7;"/><path d="m69.46,53.01h10c18.94-13.74,44.18-22.1,71.57-21.42v-12.65c-18.83-1.67-56.55,9.31-81.57,34.07Z" style="fill:#7bd3f7;"/><path d="m90.68,57.85c4.28-1.73,9.77-3.4,15.81-4.83h-19.84c-19.39,10.95-36.13,27.28-40.33,49.37h1.96c6.38-21.58,27.37-38.36,42.41-44.54Z" style="fill:#7bd3f7;"/><path d="m79.47,53.01h-10c-12.65,12.51-22.06,28.54-24.13,48.24,1.94-19.06,9.69-35.21,20.73-48.24h-8.46c-8.81,14.22-13.95,30.86-13.31,49.37h1.97c3.39-19.15,15.57-36.59,33.21-49.37Z" style="fill:#7bd3f7;"/><path d="m86.88,63.14h13.53v5.82h-5.55v5.52h4.95v5.56h-4.95v12.21h-7.98v-29.12Z" style="fill:#fff;"/><path d="m110.34,63.14v29.12h-7.98v-29.12h7.98Z" style="fill:#fff;"/><path d="m113.57,63.14h5.65c3.77,0,6.32.14,7.66.41,1.33.28,2.42.98,3.26,2.12.84,1.13,1.26,2.94,1.26,5.43,0,2.27-.3,3.79-.89,4.57-.59.78-1.77,1.25-3.51,1.4,1.58.37,2.65.87,3.19,1.49.54.62.88,1.2,1.02,1.72.13.52.2,1.96.2,4.3v7.68h-7.43v-9.67c0-1.56-.13-2.52-.39-2.9-.26-.37-.94-.56-2.04-.56v13.13h-7.98v-29.12Zm7.98,5v6.48c.9,0,1.53-.12,1.89-.35.36-.23.54-.99.54-2.28v-1.6c0-.92-.17-1.53-.52-1.82-.35-.29-.98-.43-1.91-.43Z" style="fill:#fff;"/><path d="m134.52,63.14h13.3v5.82h-5.32v5.52h5v5.56h-5v6.39h5.87v5.82h-13.85v-29.12Z" style="fill:#fff;"/><path d="m21.68,20.94v23.29h4.62v5.84h-12.18v-29.12h7.56Z" style="fill:#ed1c24;"/><path d="m42.05,20.94l4.35,29.12h-7.73l-.4-5.23h-2.75l-.42,5.23h-7.83l3.84-29.12h10.93Zm-4.02,18.72c-.37-3.29-.74-7.38-1.12-12.26-.76,5.6-1.25,9.69-1.45,12.26h2.57Z" style="fill:#ed1c24;"/><path d="m60.98,20.94v5.84h-4.52v23.29h-7.56v-23.29h-4.52v-5.84h16.59Z" style="fill:#ed1c24;"/><path d="m74.21,20.94l4.35,29.12h-7.73l-.41-5.23h-2.75l-.42,5.23h-7.83l3.84-29.12h10.93Zm-4.02,18.72c-.37-3.29-.74-7.38-1.12-12.26-.77,5.6-1.25,9.69-1.45,12.26h2.57Z" style="fill:#ed1c24;"/><path d="m97.99,20.94l-4.34,13.15,4.75,15.98h-7.81l-3.12-12.49v12.49h-7.56v-29.12h7.56v11.32l3.42-11.32h7.1Z" style="fill:#ed1c24;"/><path d="m117.62,20.94l-3.87,29.12h-11.44l-4.38-29.12h7.97c.93,8.02,1.59,14.82,2,20.39.41-5.63.83-10.62,1.23-14.97l.52-5.42h7.97Z" style="fill:#ed1c24;"/><path d="m131.45,20.94l4.35,29.12h-7.72l-.41-5.23h-2.75l-.42,5.23h-7.83l3.84-29.12h10.93Zm-4.02,18.72c-.37-3.29-.74-7.38-1.12-12.26-.77,5.6-1.25,9.69-1.45,12.26h2.57Z" style="fill:#ed1c24;"/></svg>