<svg xmlns="http://www.w3.org/2000/svg" width="206" height="66" viewBox="0 0 206 66" fill="none"><path d="M49 13L20 64H78L49 13Z" fill="#F00205"></path><path fill-rule="evenodd" clip-rule="evenodd" d="M2 53L31 2L41.0167 19.6156L22.2 53H2Z" fill="#32599A"></path><path d="M105.85 30.2422C105.697 28.8156 105.055 27.7048 103.922 26.9098C102.8 26.1148 101.341 25.7173 99.5443 25.7173C98.2811 25.7173 97.1975 25.9079 96.2936 26.2891C95.3897 26.6702 94.6982 27.1875 94.2191 27.8409C93.7399 28.4943 93.4949 29.2403 93.484 30.0788C93.484 30.7758 93.6419 31.3802 93.9577 31.892C94.2844 32.4039 94.7254 32.8395 95.2808 33.1989C95.8362 33.5473 96.4515 33.8414 97.1267 34.081C97.8019 34.3205 98.4825 34.522 99.1686 34.6854L102.305 35.4695C103.568 35.7635 104.782 36.161 105.948 36.6619C107.124 37.1629 108.175 37.7945 109.1 38.5568C110.037 39.3191 110.778 40.2393 111.322 41.3175C111.867 42.3956 112.139 43.6589 112.139 45.1072C112.139 47.0675 111.638 48.7936 110.636 50.2855C109.634 51.7666 108.186 52.9264 106.291 53.7649C104.407 54.5926 102.125 55.0064 99.4463 55.0064C96.8436 55.0064 94.5839 54.6035 92.6672 53.7976C90.7614 52.9917 89.2695 51.8156 88.1914 50.2692C87.1241 48.7228 86.5469 46.8388 86.4598 44.6172H92.4222C92.5093 45.7824 92.8687 46.7517 93.5003 47.5249C94.1319 48.2981 94.9541 48.8752 95.9669 49.2564C96.9906 49.6375 98.1341 49.8281 99.3973 49.8281C100.715 49.8281 101.869 49.6321 102.86 49.2401C103.862 48.8371 104.646 48.2817 105.213 47.5739C105.779 46.8551 106.068 46.0166 106.078 45.0582C106.068 44.187 105.812 43.4683 105.311 42.902C104.81 42.3248 104.107 41.8456 103.203 41.4645C102.31 41.0724 101.265 40.724 100.067 40.419L96.261 39.4389C93.5057 38.7311 91.3277 37.6584 89.7269 36.2209C88.1369 34.7725 87.3419 32.8504 87.3419 30.4545C87.3419 28.4834 87.8755 26.7573 88.9428 25.2763C90.0209 23.7952 91.4856 22.6463 93.3369 21.8295C95.1883 21.0019 97.2846 20.5881 99.626 20.5881C102 20.5881 104.08 21.0019 105.866 21.8295C107.663 22.6463 109.073 23.7843 110.097 25.2436C111.121 26.692 111.649 28.3582 111.681 30.2422H105.85ZM119.382 54.5V21.0455H141.14V26.1257H125.442V35.2081H140.013V40.2884H125.442V49.4197H141.271V54.5H119.382ZM149.163 54.5V21.0455H155.223V49.4197H169.958V54.5H149.163ZM195.239 30.2422C195.086 28.8156 194.444 27.7048 193.311 26.9098C192.19 26.1148 190.73 25.7173 188.933 25.7173C187.67 25.7173 186.587 25.9079 185.683 26.2891C184.779 26.6702 184.087 27.1875 183.608 27.8409C183.129 28.4943 182.884 29.2403 182.873 30.0788C182.873 30.7758 183.031 31.3802 183.347 31.892C183.674 32.4039 184.115 32.8395 184.67 33.1989C185.225 33.5473 185.841 33.8414 186.516 34.081C187.191 34.3205 187.872 34.522 188.558 34.6854L191.694 35.4695C192.957 35.7635 194.172 36.161 195.337 36.6619C196.513 37.1629 197.564 37.7945 198.49 38.5568C199.426 39.3191 200.167 40.2393 200.711 41.3175C201.256 42.3956 201.528 43.6589 201.528 45.1072C201.528 47.0675 201.027 48.7936 200.025 50.2855C199.023 51.7666 197.575 52.9264 195.68 53.7649C193.796 54.5926 191.514 55.0064 188.835 55.0064C186.233 55.0064 183.973 54.6035 182.056 53.7976C180.151 52.9917 178.659 51.8156 177.58 50.2692C176.513 48.7228 175.936 46.8388 175.849 44.6172H181.811C181.898 45.7824 182.258 46.7517 182.889 47.5249C183.521 48.2981 184.343 48.8752 185.356 49.2564C186.38 49.6375 187.523 49.8281 188.786 49.8281C190.104 49.8281 191.259 49.6321 192.25 49.2401C193.251 48.8371 194.036 48.2817 194.602 47.5739C195.168 46.8551 195.457 46.0166 195.468 45.0582C195.457 44.187 195.201 43.4683 194.7 42.902C194.199 42.3248 193.496 41.8456 192.593 41.4645C191.7 41.0724 190.654 40.724 189.456 40.419L185.65 39.4389C182.895 38.7311 180.717 37.6584 179.116 36.2209C177.526 34.7725 176.731 32.8504 176.731 30.4545C176.731 28.4834 177.265 26.7573 178.332 25.2763C179.41 23.7952 180.875 22.6463 182.726 21.8295C184.577 21.0019 186.674 20.5881 189.015 20.5881C191.389 20.5881 193.469 21.0019 195.255 21.8295C197.052 22.6463 198.462 23.7843 199.486 25.2436C200.51 26.692 201.038 28.3582 201.071 30.2422H195.239Z" fill="#F00205"></path></svg>