<svg xmlns="http://www.w3.org/2000/svg" xmlns:xlink="http://www.w3.org/1999/xlink" viewBox="0 0 341.38 118.69">
<defs>
<style>.cls-1{fill:url(#linear-gradient);}.cls-2{fill:#0086cc;}.cls-3{fill:#f26722;}.cls-4{fill:#231f20;}</style>
<linearGradient id="linear-gradient" x1="30.69" y1="29.7" x2="83.56" y2="93.48" gradientUnits="userSpaceOnUse">
<stop offset="0" stop-color="#424b51"/>
<stop offset="0.25" stop-color="#788287"/>
<stop offset="0.49" stop-color="#a7b0b6"/>
<stop offset="0.7" stop-color="#c8d2d7"/>
<stop offset="0.88" stop-color="#dde7ec"/>
<stop offset="1" stop-color="#e4eef3"/>
</linearGradient>
</defs>
<title>Sprinkler service logo</title>
<path class="cls-1" d="M4.44,21.2s104.88,27.24,105,37.73l-2.32,46.33C7,70.21,1.17,61.6.82,59.82.55,58.4,4.44,21.2,4.44,21.2Z"/>
<path class="cls-2" d="M2.26,12.87a2,2,0,0,1,.24-.76,1.54,1.54,0,0,1,.58-.58C6.94,9.51,25,.5,56.48,0,91.32-.5,104.75,5.75,108,6.93a1.64,1.64,0,0,1,1,1.4,107.8,107.8,0,0,1,.53,22.2,1.14,1.14,0,0,1-1,.92A349.79,349.79,0,0,0,67.3,33.94C29.11,38.77.52,53.26.82,59.82A248.4,248.4,0,0,1,2.26,12.87Z"/>
<path class="cls-3" d="M108,105.82a2,2,0,0,1-.24.76,1.67,1.67,0,0,1-.57.58c-3.87,2-21.56,11-53,11.5-34.84.53-49-5.72-52.28-6.9a1.66,1.66,0,0,1-1-1.41A106.9,106.9,0,0,1,.32,88.16a1.13,1.13,0,0,1,1-.92,355.27,355.27,0,0,0,41.59-2.5c38.19-4.82,66.78-19.31,66.48-25.87A248.41,248.41,0,0,1,108,105.82Z"/>
<path class="cls-4" d="M148.58,49.84a51.5,51.5,0,0,1-8.55-.72c-.88-.16-1-.36-1-.92V46.13a.79.79,0,0,1,.88-.82h.15c2.37.2,6.13.3,8.5.3,6.18,0,7.83-2.47,7.83-6.07,0-2.58-1.49-4-6.18-6.91l-5-3c-4.74-2.88-7.11-5.51-7.11-9.63,0-6.23,4.48-9.11,12.31-9.11a70,70,0,0,1,9,.61c.51.1.87.36.87.88v2.22a.8.8,0,0,1-.87.82h-.11c-2.26-.16-5.87-.31-8.86-.31-5.3,0-7.57,1.13-7.57,4.89,0,2.42,1.7,3.86,5.62,6.23L153.22,29c6,3.55,8.08,6.38,8.08,10.51C161.3,44.48,158.73,49.84,148.58,49.84Z"/>
<path class="cls-4" d="M179,49.84a37,37,0,0,1-6-.57v9.32a1,1,0,0,1-1,1h-2.63a.93.93,0,0,1-.93-1V23.16c0-.67.16-1,1.08-1.19A42.61,42.61,0,0,1,179,20.78c7.68,0,11.23,5,11.23,12.72v3.72C190.2,45.31,186.49,49.84,179,49.84Zm6.7-16.34c0-5.4-1.6-8.9-6.7-8.9a38.06,38.06,0,0,0-6,.51v20.4a40.12,40.12,0,0,0,6,.51c5.05,0,6.7-3.29,6.7-8.8Z"/>
<path class="cls-4" d="M209,24.7a13.09,13.09,0,0,0-7.11,2.17V48.45a1.07,1.07,0,0,1-1,1h-2.53a1,1,0,0,1-1-1V22.18a1,1,0,0,1,1-1h2.43a1,1,0,0,1,1,1v1.08A12.32,12.32,0,0,1,209,20.78c.72,0,1.08.32,1.08.94v2.1C210,24.39,209.67,24.7,209,24.7Z"/>
<path class="cls-4" d="M220.13,16.62H217.5a1,1,0,0,1-1-1V11.46a1,1,0,0,1,1-1h2.63a1,1,0,0,1,1,1v4.12A1,1,0,0,1,220.13,16.62ZM220,49.48h-2.48a1,1,0,0,1-1-1V22.18a1,1,0,0,1,1-1H220a1,1,0,0,1,1,1V48.45A1,1,0,0,1,220,49.48Z"/>
<path class="cls-4" d="M250.37,49.48h-2.48a1,1,0,0,1-1-1v-17c0-5.21-1.75-6.8-5.67-6.8a16.24,16.24,0,0,0-6.95,2V48.45a1.07,1.07,0,0,1-1,1h-2.52a1,1,0,0,1-1-1V22.18a1,1,0,0,1,1-1h2.57a1,1,0,0,1,1,1v1a15.49,15.49,0,0,1,8.19-2.38c6.18,0,9,3.87,9,10.72v17A1,1,0,0,1,250.37,49.48Z"/>
<path class="cls-4" d="M279.11,49.48H275.4c-.57,0-.77-.16-1.19-.67L264,36.14V48.45a1,1,0,0,1-1,1h-2.47a1,1,0,0,1-1-1V11.77a1,1,0,0,1,1-1h2.47a1,1,0,0,1,1,1V33.2l10.3-11.59a1.11,1.11,0,0,1,1-.46h3.61c.51,0,.77.25.77.57a.8.8,0,0,1-.26.56L268.08,34.54l11.44,13.8a.75.75,0,0,1,.15.47A.6.6,0,0,1,279.11,49.48Z"/>
<path class="cls-4" d="M290.13,49.48h-2.68a1,1,0,0,1-.93-1V11.72a.93.93,0,0,1,.93-1h2.68a.93.93,0,0,1,.93,1V48.45A1,1,0,0,1,290.13,49.48Z"/>
<path class="cls-4" d="M320.47,36.75H303.21v.72c0,6.13,2.42,8.4,7.16,8.4a72.57,72.57,0,0,0,9.17-.56h.26c.41,0,.82.2.82.71v1.76c0,.67-.2,1-1,1.18a46.58,46.58,0,0,1-9.23.88c-5.92,0-11.69-2.79-11.69-12.37V32.84c0-7.37,4.07-12.06,11.43-12.06,7.53,0,11.34,4.74,11.34,12.06v2.78A1,1,0,0,1,320.47,36.75Zm-3.61-3.91c0-5.82-2.21-8.09-6.75-8.09s-6.9,2.53-6.9,8.09v.46h13.65Z"/>
<path class="cls-4" d="M340.3,24.7a13.06,13.06,0,0,0-7.11,2.17V48.45a1.07,1.07,0,0,1-1,1h-2.52a1,1,0,0,1-1-1V22.18a1,1,0,0,1,1-1h2.42a1,1,0,0,1,1,1v1.08a12.37,12.37,0,0,1,7.27-2.48c.72,0,1.08.32,1.08.94v2.1C341.38,24.39,341,24.7,340.3,24.7Z"/>
<path class="cls-4" d="M148.58,106.63a51.5,51.5,0,0,1-8.55-.72c-.88-.16-1-.36-1-.92v-2.06a.8.8,0,0,1,.88-.83h.15c2.37.2,6.13.31,8.5.31,6.18,0,7.83-2.47,7.83-6.08,0-2.57-1.49-4-6.18-6.9l-5-3c-4.74-2.88-7.11-5.52-7.11-9.63,0-6.24,4.48-9.12,12.31-9.12a69.76,69.76,0,0,1,9,.62c.51.1.87.35.87.87v2.22a.8.8,0,0,1-.87.82h-.11c-2.26-.15-5.87-.31-8.86-.31-5.3,0-7.57,1.14-7.57,4.9,0,2.42,1.7,3.86,5.62,6.23l4.74,2.83c6,3.56,8.08,6.38,8.08,10.51C161.3,101.27,158.73,106.63,148.58,106.63Z"/>
<path class="cls-4" d="M189.27,93.55H172v.72c0,6.13,2.43,8.39,7.16,8.39a71,71,0,0,0,9.18-.56h.25c.42,0,.83.2.83.72v1.75c0,.67-.21,1-1,1.18a46.51,46.51,0,0,1-9.23.88c-5.92,0-11.69-2.78-11.69-12.36V89.64c0-7.37,4.07-12.06,11.44-12.06,7.52,0,11.33,4.74,11.33,12.06v2.77C190.25,93.08,189.89,93.55,189.27,93.55Zm-3.6-3.91c0-5.83-2.22-8.1-6.75-8.1S172,84.07,172,89.64v.46h13.66Z"/>
<path class="cls-4" d="M209.11,81.49A13.2,13.2,0,0,0,202,83.66v21.58a1.07,1.07,0,0,1-1,1h-2.52a1,1,0,0,1-1-1V79a1,1,0,0,1,1-1h2.42a1,1,0,0,1,1,1v1.08a12.33,12.33,0,0,1,7.27-2.47c.72,0,1.07.31,1.07.93v2.11C210.18,81.19,209.83,81.49,209.11,81.49Z"/>
<path class="cls-4" d="M237.85,79.18l-6.95,24.51c-.68,2.32-2.43,2.94-4.64,2.94s-4-.62-4.64-2.94l-7-24.51a.89.89,0,0,1-.06-.36.8.8,0,0,1,.83-.88h2.83c.42,0,.77.31,1,1l5.92,22.46c.31,1.23.57,1.49,1.09,1.49s.77-.26,1.08-1.49l5.92-22.46c.21-.67.57-1,1-1h2.83a.8.8,0,0,1,.83.88A1.06,1.06,0,0,1,237.85,79.18Z"/>
<path class="cls-4" d="M248.61,73.41H246a1,1,0,0,1-1-1V68.26a1,1,0,0,1,1-1h2.62a1,1,0,0,1,1,1v4.12A1,1,0,0,1,248.61,73.41Zm-.1,32.86H246a1,1,0,0,1-1-1V79a1,1,0,0,1,1-1h2.47a1,1,0,0,1,1,1v26.27A1,1,0,0,1,248.51,106.27Z"/>
<path class="cls-4" d="M274.68,106.07a38.38,38.38,0,0,1-6.44.56c-7,0-11-4.94-11-12.51v-4c0-7.58,3.91-12.52,11-12.52a36.75,36.75,0,0,1,6.44.57c.82.15,1,.41,1,1.13v1.85a.79.79,0,0,1-.88.78h-.2a49.85,49.85,0,0,0-6.39-.37c-4.12,0-6.44,2.74-6.44,8.56v4c0,5.77,2.27,8.54,6.44,8.54a49.91,49.91,0,0,0,6.39-.36h.2a.79.79,0,0,1,.88.78v1.85C275.71,105.6,275.5,105.91,274.68,106.07Z"/>
<path class="cls-4" d="M303.37,93.55H286.11v.72c0,6.13,2.42,8.39,7.16,8.39a70.75,70.75,0,0,0,9.17-.56h.26a.72.72,0,0,1,.82.72v1.75c0,.67-.2,1-1,1.18a46.41,46.41,0,0,1-9.22.88c-5.92,0-11.69-2.78-11.69-12.36V89.64c0-7.37,4.07-12.06,11.43-12.06,7.52,0,11.34,4.74,11.34,12.06v2.77C304.35,93.08,304,93.55,303.37,93.55Zm-3.61-3.91c0-5.83-2.21-8.1-6.75-8.1s-6.9,2.53-6.9,8.1v.46h13.65Z"/>
</svg>
